M48
; DRILL file {KiCad 7.0.1} date Mon May 29 19:53:01 2023
; FORMAT={-:-/ absolute / metric / decimal}
; #@! TF.CreationDate,2023-05-29T19:53:01+03:00
; #@! TF.GenerationSoftware,Kicad,Pcbnew,7.0.1
; #@! TF.FileFunction,Plated,1,2,PTH
FMAT,2
METRIC
; #@! TA.AperFunction,Plated,PTH,ViaDrill
T1C0.400
; #@! TA.AperFunction,Plated,PTH,ComponentDrill
T2C0.500
; #@! TA.AperFunction,Plated,PTH,ComponentDrill
T3C0.600
; #@! TA.AperFunction,Plated,PTH,ComponentDrill
T4C0.750
; #@! TA.AperFunction,Plated,PTH,ComponentDrill
T5C0.800
; #@! TA.AperFunction,Plated,PTH,ComponentDrill
T6C0.850
; #@! TA.AperFunction,Plated,PTH,ComponentDrill
T7C1.100
; #@! TA.AperFunction,Plated,PTH,ComponentDrill
T8C1.300
%
G90
G05
T1
X154.94Y-68.58
X159.385Y-132.715
X160.02Y-97.79
X162.56Y-93.345
X163.83Y-90.805
X166.37Y-94.615
X166.37Y-103.195
X166.37Y-107.005
X166.37Y-118.435
X166.37Y-128.595
X167.64Y-78.74
X168.148Y-119.38
X169.408Y-52.827
X170.18Y-66.04
X170.815Y-84.455
X171.45Y-64.77
X172.72Y-63.5
X172.72Y-78.74
X172.984Y-52.842
X173.355Y-132.715
X174.625Y-110.49
X178.435Y-83.185
X179.07Y-99.06
X180.34Y-94.615
X181.61Y-91.44
X182.88Y-85.09
X182.88Y-102.87
X187.96Y-117.475
X190.5Y-92.71
X190.5Y-99.06
X193.675Y-115.57
X196.723Y-71.882
X199.39Y-69.215
X200.025Y-62.23
X200.66Y-73.66
X204.47Y-60.96
X204.47Y-62.23
X204.47Y-74.93
X205.105Y-125.73
X205.74Y-106.68
X208.28Y-74.93
X208.28Y-88.9
X209.55Y-62.23
X211.963Y-57.785
X212.725Y-66.675
X213.36Y-71.12
X214.63Y-52.07
X215.392Y-66.294
X215.392Y-70.993
X215.519Y-57.404
X225.298Y-52.832
X226.06Y-115.57
X231.267Y-56.388
X246.507Y-57.658
T2
X188.625Y-60.725
X191.165Y-60.725
T4
X201.93Y-91.44
X203.2Y-91.44
X204.47Y-91.44
T5
X168.91Y-87.63
X168.91Y-90.17
X168.91Y-92.71
X168.91Y-95.25
X168.91Y-97.79
X168.91Y-100.33
X168.91Y-102.87
X176.53Y-87.63
X176.53Y-90.17
X176.53Y-92.71
X176.53Y-95.25
X176.53Y-97.79
X176.53Y-100.33
X176.53Y-102.87
X176.54Y-57.155
X176.54Y-59.695
X176.54Y-62.235
X176.54Y-64.775
X176.54Y-67.315
X176.54Y-69.855
X176.54Y-72.395
X176.54Y-74.935
X176.54Y-77.475
X176.54Y-80.015
X184.16Y-57.155
X184.16Y-59.695
X184.16Y-62.235
X184.16Y-64.775
X184.16Y-67.315
X184.16Y-69.855
X184.16Y-72.395
X184.16Y-74.935
X184.16Y-77.475
X184.16Y-80.015
X193.31Y-137.16
X195.12Y-47.625
X195.31Y-137.16
X197.12Y-47.625
X199.12Y-47.625
X201.12Y-47.625
X245.237Y-66.818
X245.237Y-68.818
T6
X214.899Y-48.275
X219.899Y-48.275
T7
X157.155Y-118.745
X157.155Y-121.285
X157.155Y-123.825
T8
X217.52Y-90.47
X217.52Y-102.67
X223.52Y-88.47
X229.52Y-90.47
X229.52Y-102.67
T3
X213.899Y-45.925G85X213.899Y-45.225
G05
X220.899Y-45.225G85X220.899Y-45.925
G05
T0
M30
