%TF.GenerationSoftware,KiCad,Pcbnew,7.0.1*%
%TF.CreationDate,2023-05-29T19:52:37+03:00*%
%TF.ProjectId,First_sketch_licenta,46697273-745f-4736-9b65-7463685f6c69,rev?*%
%TF.SameCoordinates,Original*%
%TF.FileFunction,Paste,Top*%
%TF.FilePolarity,Positive*%
%FSLAX46Y46*%
G04 Gerber Fmt 4.6, Leading zero omitted, Abs format (unit mm)*
G04 Created by KiCad (PCBNEW 7.0.1) date 2023-05-29 19:52:37*
%MOMM*%
%LPD*%
G01*
G04 APERTURE LIST*
G04 Aperture macros list*
%AMRoundRect*
0 Rectangle with rounded corners*
0 $1 Rounding radius*
0 $2 $3 $4 $5 $6 $7 $8 $9 X,Y pos of 4 corners*
0 Add a 4 corners polygon primitive as box body*
4,1,4,$2,$3,$4,$5,$6,$7,$8,$9,$2,$3,0*
0 Add four circle primitives for the rounded corners*
1,1,$1+$1,$2,$3*
1,1,$1+$1,$4,$5*
1,1,$1+$1,$6,$7*
1,1,$1+$1,$8,$9*
0 Add four rect primitives between the rounded corners*
20,1,$1+$1,$2,$3,$4,$5,0*
20,1,$1+$1,$4,$5,$6,$7,0*
20,1,$1+$1,$6,$7,$8,$9,0*
20,1,$1+$1,$8,$9,$2,$3,0*%
G04 Aperture macros list end*
%ADD10R,2.000000X1.500000*%
%ADD11R,2.000000X3.800000*%
%ADD12RoundRect,0.250000X-0.312500X-0.625000X0.312500X-0.625000X0.312500X0.625000X-0.312500X0.625000X0*%
%ADD13R,1.500000X1.900000*%
%ADD14R,0.400000X1.350000*%
%ADD15RoundRect,0.250000X0.312500X0.625000X-0.312500X0.625000X-0.312500X-0.625000X0.312500X-0.625000X0*%
%ADD16RoundRect,0.230000X0.230000X0.375000X-0.230000X0.375000X-0.230000X-0.375000X0.230000X-0.375000X0*%
%ADD17RoundRect,0.150000X0.825000X0.150000X-0.825000X0.150000X-0.825000X-0.150000X0.825000X-0.150000X0*%
%ADD18RoundRect,0.250000X-0.325000X-0.650000X0.325000X-0.650000X0.325000X0.650000X-0.325000X0.650000X0*%
%ADD19RoundRect,0.250000X0.325000X0.650000X-0.325000X0.650000X-0.325000X-0.650000X0.325000X-0.650000X0*%
%ADD20RoundRect,0.250000X0.650000X-0.325000X0.650000X0.325000X-0.650000X0.325000X-0.650000X-0.325000X0*%
%ADD21RoundRect,0.250000X-0.362500X-1.425000X0.362500X-1.425000X0.362500X1.425000X-0.362500X1.425000X0*%
%ADD22RoundRect,0.130000X0.130000X0.275000X-0.130000X0.275000X-0.130000X-0.275000X0.130000X-0.275000X0*%
%ADD23RoundRect,0.075000X0.300000X0.075000X-0.300000X0.075000X-0.300000X-0.075000X0.300000X-0.075000X0*%
%ADD24RoundRect,0.075000X0.662500X0.075000X-0.662500X0.075000X-0.662500X-0.075000X0.662500X-0.075000X0*%
%ADD25RoundRect,0.075000X0.075000X0.662500X-0.075000X0.662500X-0.075000X-0.662500X0.075000X-0.662500X0*%
%ADD26RoundRect,0.250000X-0.375000X-0.625000X0.375000X-0.625000X0.375000X0.625000X-0.375000X0.625000X0*%
%ADD27RoundRect,0.250000X0.375000X0.625000X-0.375000X0.625000X-0.375000X-0.625000X0.375000X-0.625000X0*%
G04 APERTURE END LIST*
D10*
%TO.C,U2*%
X233197000Y-56628000D03*
X233197000Y-58928000D03*
D11*
X239497000Y-58928000D03*
D10*
X233197000Y-61228000D03*
%TD*%
D12*
%TO.C,R5*%
X201295000Y-123190000D03*
X204220000Y-123190000D03*
%TD*%
D13*
%TO.C,J4*%
X216398600Y-45574700D03*
X218398600Y-45574700D03*
D14*
X216098600Y-48274700D03*
X216748600Y-48274700D03*
X217398600Y-48274700D03*
X218048600Y-48274700D03*
X218698600Y-48274700D03*
%TD*%
D15*
%TO.C,R7*%
X195965000Y-93980000D03*
X193040000Y-93980000D03*
%TD*%
D16*
%TO.C,TLV342AIDR1*%
X159385000Y-103195000D03*
X159385000Y-101695000D03*
X158245000Y-103195000D03*
X158245000Y-101695000D03*
D17*
X161290000Y-104350000D03*
X161290000Y-103080000D03*
X161290000Y-101810000D03*
X161290000Y-100540000D03*
X156340000Y-100540000D03*
X156340000Y-101810000D03*
X156340000Y-103080000D03*
X156340000Y-104350000D03*
%TD*%
D18*
%TO.C,C4*%
X203200000Y-104140000D03*
X206150000Y-104140000D03*
%TD*%
D19*
%TO.C,C7*%
X227662000Y-56388000D03*
X224712000Y-56388000D03*
%TD*%
D12*
%TO.C,R3*%
X205547500Y-52070000D03*
X208472500Y-52070000D03*
%TD*%
D20*
%TO.C,C9*%
X212852000Y-62943000D03*
X212852000Y-59993000D03*
%TD*%
D21*
%TO.C,R12*%
X174837500Y-136525000D03*
X180762500Y-136525000D03*
%TD*%
D19*
%TO.C,C3*%
X209755000Y-59690000D03*
X206805000Y-59690000D03*
%TD*%
D12*
%TO.C,R10*%
X158750000Y-110815000D03*
X161675000Y-110815000D03*
%TD*%
D20*
%TO.C,C1*%
X169418000Y-58117000D03*
X169418000Y-55167000D03*
%TD*%
D22*
%TO.C,MCP73830*%
X187960000Y-96520000D03*
X187960000Y-95520000D03*
X187310000Y-96520000D03*
X187310000Y-95520000D03*
D23*
X188885000Y-96670000D03*
X188885000Y-96020000D03*
X188885000Y-95370000D03*
X186385000Y-95370000D03*
X186385000Y-96020000D03*
X186385000Y-96670000D03*
%TD*%
D21*
%TO.C,R11*%
X161502500Y-136779000D03*
X167427500Y-136779000D03*
%TD*%
D12*
%TO.C,R9*%
X166370000Y-123515000D03*
X169295000Y-123515000D03*
%TD*%
D24*
%TO.C,U4*%
X209892500Y-71687500D03*
X209892500Y-71187500D03*
X209892500Y-70687500D03*
X209892500Y-70187500D03*
X209892500Y-69687500D03*
X209892500Y-69187500D03*
X209892500Y-68687500D03*
X209892500Y-68187500D03*
X209892500Y-67687500D03*
X209892500Y-67187500D03*
X209892500Y-66687500D03*
X209892500Y-66187500D03*
D25*
X208480000Y-64775000D03*
X207980000Y-64775000D03*
X207480000Y-64775000D03*
X206980000Y-64775000D03*
X206480000Y-64775000D03*
X205980000Y-64775000D03*
X205480000Y-64775000D03*
X204980000Y-64775000D03*
X204480000Y-64775000D03*
X203980000Y-64775000D03*
X203480000Y-64775000D03*
X202980000Y-64775000D03*
D24*
X201567500Y-66187500D03*
X201567500Y-66687500D03*
X201567500Y-67187500D03*
X201567500Y-67687500D03*
X201567500Y-68187500D03*
X201567500Y-68687500D03*
X201567500Y-69187500D03*
X201567500Y-69687500D03*
X201567500Y-70187500D03*
X201567500Y-70687500D03*
X201567500Y-71187500D03*
X201567500Y-71687500D03*
D25*
X202980000Y-73100000D03*
X203480000Y-73100000D03*
X203980000Y-73100000D03*
X204480000Y-73100000D03*
X204980000Y-73100000D03*
X205480000Y-73100000D03*
X205980000Y-73100000D03*
X206480000Y-73100000D03*
X206980000Y-73100000D03*
X207480000Y-73100000D03*
X207980000Y-73100000D03*
X208480000Y-73100000D03*
%TD*%
D18*
%TO.C,C6*%
X243762000Y-55118000D03*
X246712000Y-55118000D03*
%TD*%
D26*
%TO.C,D3*%
X200530000Y-80010000D03*
X203330000Y-80010000D03*
%TD*%
D15*
%TO.C,R1*%
X198505000Y-99060000D03*
X195580000Y-99060000D03*
%TD*%
D19*
%TO.C,C5*%
X188370000Y-104140000D03*
X185420000Y-104140000D03*
%TD*%
D27*
%TO.C,D1*%
X198380000Y-104140000D03*
X195580000Y-104140000D03*
%TD*%
D19*
%TO.C,C8*%
X169115000Y-113355000D03*
X166165000Y-113355000D03*
%TD*%
D27*
%TO.C,D4*%
X194440000Y-83820000D03*
X191640000Y-83820000D03*
%TD*%
D12*
%TO.C,R4*%
X196215000Y-115570000D03*
X199140000Y-115570000D03*
%TD*%
D20*
%TO.C,C11*%
X216789000Y-62689000D03*
X216789000Y-59739000D03*
%TD*%
D26*
%TO.C,D2*%
X163700000Y-68580000D03*
X166500000Y-68580000D03*
%TD*%
D12*
%TO.C,R6*%
X198120000Y-83820000D03*
X201045000Y-83820000D03*
%TD*%
D15*
%TO.C,R2*%
X160020000Y-68580000D03*
X157095000Y-68580000D03*
%TD*%
D12*
%TO.C,R8*%
X183957500Y-91440000D03*
X186882500Y-91440000D03*
%TD*%
D20*
%TO.C,C2*%
X172984000Y-58122000D03*
X172984000Y-55172000D03*
%TD*%
M02*
