%TF.GenerationSoftware,KiCad,Pcbnew,7.0.1*%
%TF.CreationDate,2023-05-29T19:53:02+03:00*%
%TF.ProjectId,First_sketch_licenta,46697273-745f-4736-9b65-7463685f6c69,rev?*%
%TF.SameCoordinates,Original*%
%TF.FileFunction,Drillmap*%
%TF.FilePolarity,Positive*%
%FSLAX45Y45*%
G04 Gerber Fmt 4.5, Leading zero omitted, Abs format (unit mm)*
G04 Created by KiCad (PCBNEW 7.0.1) date 2023-05-29 19:53:02*
%MOMM*%
%LPD*%
G01*
G04 APERTURE LIST*
%ADD10C,0.200000*%
%ADD11C,0.040000*%
%ADD12C,0.050000*%
%ADD13C,0.060000*%
%ADD14C,0.075000*%
%ADD15C,0.080000*%
%ADD16C,0.085000*%
%ADD17C,0.110000*%
%ADD18C,0.130000*%
G04 APERTURE END LIST*
D10*
X15082500Y-4398000D02*
X25082500Y-4398000D01*
X25082500Y-14398000D01*
X15082500Y-14398000D01*
X15082500Y-4398000D01*
D11*
X15474000Y-6838000D02*
X15514000Y-6878000D01*
X15514000Y-6838000D02*
X15474000Y-6878000D01*
X15918500Y-13251500D02*
X15958500Y-13291500D01*
X15958500Y-13251500D02*
X15918500Y-13291500D01*
X15982000Y-9759000D02*
X16022000Y-9799000D01*
X16022000Y-9759000D02*
X15982000Y-9799000D01*
X16236000Y-9314500D02*
X16276000Y-9354500D01*
X16276000Y-9314500D02*
X16236000Y-9354500D01*
X16363000Y-9060500D02*
X16403000Y-9100500D01*
X16403000Y-9060500D02*
X16363000Y-9100500D01*
X16617000Y-9441500D02*
X16657000Y-9481500D01*
X16657000Y-9441500D02*
X16617000Y-9481500D01*
X16617000Y-10299500D02*
X16657000Y-10339500D01*
X16657000Y-10299500D02*
X16617000Y-10339500D01*
X16617000Y-10680500D02*
X16657000Y-10720500D01*
X16657000Y-10680500D02*
X16617000Y-10720500D01*
X16617000Y-11823500D02*
X16657000Y-11863500D01*
X16657000Y-11823500D02*
X16617000Y-11863500D01*
X16617000Y-12839500D02*
X16657000Y-12879500D01*
X16657000Y-12839500D02*
X16617000Y-12879500D01*
X16744000Y-7854000D02*
X16784000Y-7894000D01*
X16784000Y-7854000D02*
X16744000Y-7894000D01*
X16794800Y-11918000D02*
X16834800Y-11958000D01*
X16834800Y-11918000D02*
X16794800Y-11958000D01*
X16920800Y-5262700D02*
X16960800Y-5302700D01*
X16960800Y-5262700D02*
X16920800Y-5302700D01*
X16998000Y-6584000D02*
X17038000Y-6624000D01*
X17038000Y-6584000D02*
X16998000Y-6624000D01*
X17061500Y-8425500D02*
X17101500Y-8465500D01*
X17101500Y-8425500D02*
X17061500Y-8465500D01*
X17125000Y-6457000D02*
X17165000Y-6497000D01*
X17165000Y-6457000D02*
X17125000Y-6497000D01*
X17252000Y-6330000D02*
X17292000Y-6370000D01*
X17292000Y-6330000D02*
X17252000Y-6370000D01*
X17252000Y-7854000D02*
X17292000Y-7894000D01*
X17292000Y-7854000D02*
X17252000Y-7894000D01*
X17278400Y-5264200D02*
X17318400Y-5304200D01*
X17318400Y-5264200D02*
X17278400Y-5304200D01*
X17315500Y-13251500D02*
X17355500Y-13291500D01*
X17355500Y-13251500D02*
X17315500Y-13291500D01*
X17442500Y-11029000D02*
X17482500Y-11069000D01*
X17482500Y-11029000D02*
X17442500Y-11069000D01*
X17823500Y-8298500D02*
X17863500Y-8338500D01*
X17863500Y-8298500D02*
X17823500Y-8338500D01*
X17887000Y-9886000D02*
X17927000Y-9926000D01*
X17927000Y-9886000D02*
X17887000Y-9926000D01*
X18014000Y-9441500D02*
X18054000Y-9481500D01*
X18054000Y-9441500D02*
X18014000Y-9481500D01*
X18141000Y-9124000D02*
X18181000Y-9164000D01*
X18181000Y-9124000D02*
X18141000Y-9164000D01*
X18268000Y-8489000D02*
X18308000Y-8529000D01*
X18308000Y-8489000D02*
X18268000Y-8529000D01*
X18268000Y-10267000D02*
X18308000Y-10307000D01*
X18308000Y-10267000D02*
X18268000Y-10307000D01*
X18776000Y-11727500D02*
X18816000Y-11767500D01*
X18816000Y-11727500D02*
X18776000Y-11767500D01*
X19030000Y-9251000D02*
X19070000Y-9291000D01*
X19070000Y-9251000D02*
X19030000Y-9291000D01*
X19030000Y-9886000D02*
X19070000Y-9926000D01*
X19070000Y-9886000D02*
X19030000Y-9926000D01*
X19347500Y-11537000D02*
X19387500Y-11577000D01*
X19387500Y-11537000D02*
X19347500Y-11577000D01*
X19652300Y-7168200D02*
X19692300Y-7208200D01*
X19692300Y-7168200D02*
X19652300Y-7208200D01*
X19919000Y-6901500D02*
X19959000Y-6941500D01*
X19959000Y-6901500D02*
X19919000Y-6941500D01*
X19982500Y-6203000D02*
X20022500Y-6243000D01*
X20022500Y-6203000D02*
X19982500Y-6243000D01*
X20046000Y-7346000D02*
X20086000Y-7386000D01*
X20086000Y-7346000D02*
X20046000Y-7386000D01*
X20427000Y-6076000D02*
X20467000Y-6116000D01*
X20467000Y-6076000D02*
X20427000Y-6116000D01*
X20427000Y-6203000D02*
X20467000Y-6243000D01*
X20467000Y-6203000D02*
X20427000Y-6243000D01*
X20427000Y-7473000D02*
X20467000Y-7513000D01*
X20467000Y-7473000D02*
X20427000Y-7513000D01*
X20490500Y-12553000D02*
X20530500Y-12593000D01*
X20530500Y-12553000D02*
X20490500Y-12593000D01*
X20554000Y-10648000D02*
X20594000Y-10688000D01*
X20594000Y-10648000D02*
X20554000Y-10688000D01*
X20808000Y-7473000D02*
X20848000Y-7513000D01*
X20848000Y-7473000D02*
X20808000Y-7513000D01*
X20808000Y-8870000D02*
X20848000Y-8910000D01*
X20848000Y-8870000D02*
X20808000Y-8910000D01*
X20935000Y-6203000D02*
X20975000Y-6243000D01*
X20975000Y-6203000D02*
X20935000Y-6243000D01*
X21176300Y-5758500D02*
X21216300Y-5798500D01*
X21216300Y-5758500D02*
X21176300Y-5798500D01*
X21252500Y-6647500D02*
X21292500Y-6687500D01*
X21292500Y-6647500D02*
X21252500Y-6687500D01*
X21316000Y-7092000D02*
X21356000Y-7132000D01*
X21356000Y-7092000D02*
X21316000Y-7132000D01*
X21443000Y-5187000D02*
X21483000Y-5227000D01*
X21483000Y-5187000D02*
X21443000Y-5227000D01*
X21519200Y-6609400D02*
X21559200Y-6649400D01*
X21559200Y-6609400D02*
X21519200Y-6649400D01*
X21519200Y-7079300D02*
X21559200Y-7119300D01*
X21559200Y-7079300D02*
X21519200Y-7119300D01*
X21531900Y-5720400D02*
X21571900Y-5760400D01*
X21571900Y-5720400D02*
X21531900Y-5760400D01*
X22509800Y-5263200D02*
X22549800Y-5303200D01*
X22549800Y-5263200D02*
X22509800Y-5303200D01*
X22586000Y-11537000D02*
X22626000Y-11577000D01*
X22626000Y-11537000D02*
X22586000Y-11577000D01*
X23106700Y-5618800D02*
X23146700Y-5658800D01*
X23146700Y-5618800D02*
X23106700Y-5658800D01*
X24630700Y-5745800D02*
X24670700Y-5785800D01*
X24670700Y-5745800D02*
X24630700Y-5785800D01*
D12*
X18887500Y-6072500D02*
G75*
G03*
X18887500Y-6072500I-25000J0D01*
G01*
X19141500Y-6072500D02*
G75*
G03*
X19141500Y-6072500I-25000J0D01*
G01*
D13*
X21389860Y-4527470D02*
X21389860Y-4587470D01*
X21359860Y-4557470D02*
X21419860Y-4557470D01*
D10*
X21419860Y-4592470D02*
X21419860Y-4522470D01*
X21419860Y-4522470D02*
G75*
G03*
X21359860Y-4522470I-30000J0D01*
G01*
X21359860Y-4522470D02*
X21359860Y-4592470D01*
X21359860Y-4592470D02*
G75*
G03*
X21419860Y-4592470I30000J0D01*
G01*
D13*
X22089860Y-4527470D02*
X22089860Y-4587470D01*
X22059860Y-4557470D02*
X22119860Y-4557470D01*
D10*
X22059860Y-4522470D02*
X22059860Y-4592470D01*
X22059860Y-4592470D02*
G75*
G03*
X22119860Y-4592470I30000J0D01*
G01*
X22119860Y-4592470D02*
X22119860Y-4522470D01*
X22119860Y-4522470D02*
G75*
G03*
X22059860Y-4522470I-30000J0D01*
G01*
D14*
X20219517Y-9170517D02*
X20219517Y-9117483D01*
X20166483Y-9117483D01*
X20166483Y-9170517D01*
X20219517Y-9170517D01*
X20346517Y-9170517D02*
X20346517Y-9117483D01*
X20293483Y-9117483D01*
X20293483Y-9170517D01*
X20346517Y-9170517D01*
X20473517Y-9170517D02*
X20473517Y-9117483D01*
X20420483Y-9117483D01*
X20420483Y-9170517D01*
X20473517Y-9170517D01*
D15*
X16891000Y-8803000D02*
X16931000Y-8763000D01*
X16891000Y-8723000D01*
X16851000Y-8763000D01*
X16891000Y-8803000D01*
X16891000Y-9057000D02*
X16931000Y-9017000D01*
X16891000Y-8977000D01*
X16851000Y-9017000D01*
X16891000Y-9057000D01*
X16891000Y-9311000D02*
X16931000Y-9271000D01*
X16891000Y-9231000D01*
X16851000Y-9271000D01*
X16891000Y-9311000D01*
X16891000Y-9565000D02*
X16931000Y-9525000D01*
X16891000Y-9485000D01*
X16851000Y-9525000D01*
X16891000Y-9565000D01*
X16891000Y-9819000D02*
X16931000Y-9779000D01*
X16891000Y-9739000D01*
X16851000Y-9779000D01*
X16891000Y-9819000D01*
X16891000Y-10073000D02*
X16931000Y-10033000D01*
X16891000Y-9993000D01*
X16851000Y-10033000D01*
X16891000Y-10073000D01*
X16891000Y-10327000D02*
X16931000Y-10287000D01*
X16891000Y-10247000D01*
X16851000Y-10287000D01*
X16891000Y-10327000D01*
X17653000Y-8803000D02*
X17693000Y-8763000D01*
X17653000Y-8723000D01*
X17613000Y-8763000D01*
X17653000Y-8803000D01*
X17653000Y-9057000D02*
X17693000Y-9017000D01*
X17653000Y-8977000D01*
X17613000Y-9017000D01*
X17653000Y-9057000D01*
X17653000Y-9311000D02*
X17693000Y-9271000D01*
X17653000Y-9231000D01*
X17613000Y-9271000D01*
X17653000Y-9311000D01*
X17653000Y-9565000D02*
X17693000Y-9525000D01*
X17653000Y-9485000D01*
X17613000Y-9525000D01*
X17653000Y-9565000D01*
X17653000Y-9819000D02*
X17693000Y-9779000D01*
X17653000Y-9739000D01*
X17613000Y-9779000D01*
X17653000Y-9819000D01*
X17653000Y-10073000D02*
X17693000Y-10033000D01*
X17653000Y-9993000D01*
X17613000Y-10033000D01*
X17653000Y-10073000D01*
X17653000Y-10327000D02*
X17693000Y-10287000D01*
X17653000Y-10247000D01*
X17613000Y-10287000D01*
X17653000Y-10327000D01*
X17654000Y-5755500D02*
X17694000Y-5715500D01*
X17654000Y-5675500D01*
X17614000Y-5715500D01*
X17654000Y-5755500D01*
X17654000Y-6009500D02*
X17694000Y-5969500D01*
X17654000Y-5929500D01*
X17614000Y-5969500D01*
X17654000Y-6009500D01*
X17654000Y-6263500D02*
X17694000Y-6223500D01*
X17654000Y-6183500D01*
X17614000Y-6223500D01*
X17654000Y-6263500D01*
X17654000Y-6517500D02*
X17694000Y-6477500D01*
X17654000Y-6437500D01*
X17614000Y-6477500D01*
X17654000Y-6517500D01*
X17654000Y-6771500D02*
X17694000Y-6731500D01*
X17654000Y-6691500D01*
X17614000Y-6731500D01*
X17654000Y-6771500D01*
X17654000Y-7025500D02*
X17694000Y-6985500D01*
X17654000Y-6945500D01*
X17614000Y-6985500D01*
X17654000Y-7025500D01*
X17654000Y-7279500D02*
X17694000Y-7239500D01*
X17654000Y-7199500D01*
X17614000Y-7239500D01*
X17654000Y-7279500D01*
X17654000Y-7533500D02*
X17694000Y-7493500D01*
X17654000Y-7453500D01*
X17614000Y-7493500D01*
X17654000Y-7533500D01*
X17654000Y-7787500D02*
X17694000Y-7747500D01*
X17654000Y-7707500D01*
X17614000Y-7747500D01*
X17654000Y-7787500D01*
X17654000Y-8041500D02*
X17694000Y-8001500D01*
X17654000Y-7961500D01*
X17614000Y-8001500D01*
X17654000Y-8041500D01*
X18416000Y-5755500D02*
X18456000Y-5715500D01*
X18416000Y-5675500D01*
X18376000Y-5715500D01*
X18416000Y-5755500D01*
X18416000Y-6009500D02*
X18456000Y-5969500D01*
X18416000Y-5929500D01*
X18376000Y-5969500D01*
X18416000Y-6009500D01*
X18416000Y-6263500D02*
X18456000Y-6223500D01*
X18416000Y-6183500D01*
X18376000Y-6223500D01*
X18416000Y-6263500D01*
X18416000Y-6517500D02*
X18456000Y-6477500D01*
X18416000Y-6437500D01*
X18376000Y-6477500D01*
X18416000Y-6517500D01*
X18416000Y-6771500D02*
X18456000Y-6731500D01*
X18416000Y-6691500D01*
X18376000Y-6731500D01*
X18416000Y-6771500D01*
X18416000Y-7025500D02*
X18456000Y-6985500D01*
X18416000Y-6945500D01*
X18376000Y-6985500D01*
X18416000Y-7025500D01*
X18416000Y-7279500D02*
X18456000Y-7239500D01*
X18416000Y-7199500D01*
X18376000Y-7239500D01*
X18416000Y-7279500D01*
X18416000Y-7533500D02*
X18456000Y-7493500D01*
X18416000Y-7453500D01*
X18376000Y-7493500D01*
X18416000Y-7533500D01*
X18416000Y-7787500D02*
X18456000Y-7747500D01*
X18416000Y-7707500D01*
X18376000Y-7747500D01*
X18416000Y-7787500D01*
X18416000Y-8041500D02*
X18456000Y-8001500D01*
X18416000Y-7961500D01*
X18376000Y-8001500D01*
X18416000Y-8041500D01*
X19331000Y-13756000D02*
X19371000Y-13716000D01*
X19331000Y-13676000D01*
X19291000Y-13716000D01*
X19331000Y-13756000D01*
X19512000Y-4802500D02*
X19552000Y-4762500D01*
X19512000Y-4722500D01*
X19472000Y-4762500D01*
X19512000Y-4802500D01*
X19531000Y-13756000D02*
X19571000Y-13716000D01*
X19531000Y-13676000D01*
X19491000Y-13716000D01*
X19531000Y-13756000D01*
X19712000Y-4802500D02*
X19752000Y-4762500D01*
X19712000Y-4722500D01*
X19672000Y-4762500D01*
X19712000Y-4802500D01*
X19912000Y-4802500D02*
X19952000Y-4762500D01*
X19912000Y-4722500D01*
X19872000Y-4762500D01*
X19912000Y-4802500D01*
X20112000Y-4802500D02*
X20152000Y-4762500D01*
X20112000Y-4722500D01*
X20072000Y-4762500D01*
X20112000Y-4802500D01*
X24523700Y-6721800D02*
X24563700Y-6681800D01*
X24523700Y-6641800D01*
X24483700Y-6681800D01*
X24523700Y-6721800D01*
X24523700Y-6921800D02*
X24563700Y-6881800D01*
X24523700Y-6841800D01*
X24483700Y-6881800D01*
X24523700Y-6921800D01*
D16*
X21447360Y-4784970D02*
X21532360Y-4869970D01*
X21532360Y-4784970D02*
X21447360Y-4869970D01*
X21532360Y-4827470D02*
G75*
G03*
X21532360Y-4827470I-42500J0D01*
G01*
X21947360Y-4784970D02*
X22032360Y-4869970D01*
X22032360Y-4784970D02*
X21947360Y-4869970D01*
X22032360Y-4827470D02*
G75*
G03*
X22032360Y-4827470I-42500J0D01*
G01*
D17*
X15660500Y-11819500D02*
X15770500Y-11929500D01*
X15770500Y-11819500D02*
X15660500Y-11929500D01*
X15715500Y-11819500D02*
X15715500Y-11929500D01*
X15660500Y-11874500D02*
X15770500Y-11874500D01*
X15660500Y-12073500D02*
X15770500Y-12183500D01*
X15770500Y-12073500D02*
X15660500Y-12183500D01*
X15715500Y-12073500D02*
X15715500Y-12183500D01*
X15660500Y-12128500D02*
X15770500Y-12128500D01*
X15660500Y-12327500D02*
X15770500Y-12437500D01*
X15770500Y-12327500D02*
X15660500Y-12437500D01*
X15715500Y-12327500D02*
X15715500Y-12437500D01*
X15660500Y-12382500D02*
X15770500Y-12382500D01*
D18*
X21687000Y-8982000D02*
X21817000Y-9112000D01*
X21817000Y-8982000D02*
X21687000Y-9112000D01*
X21797962Y-9092962D02*
X21797962Y-9001038D01*
X21706038Y-9001038D01*
X21706038Y-9092962D01*
X21797962Y-9092962D01*
X21687000Y-10202000D02*
X21817000Y-10332000D01*
X21817000Y-10202000D02*
X21687000Y-10332000D01*
X21797962Y-10312962D02*
X21797962Y-10221038D01*
X21706038Y-10221038D01*
X21706038Y-10312962D01*
X21797962Y-10312962D01*
X22287000Y-8782000D02*
X22417000Y-8912000D01*
X22417000Y-8782000D02*
X22287000Y-8912000D01*
X22397962Y-8892962D02*
X22397962Y-8801038D01*
X22306038Y-8801038D01*
X22306038Y-8892962D01*
X22397962Y-8892962D01*
X22887000Y-8982000D02*
X23017000Y-9112000D01*
X23017000Y-8982000D02*
X22887000Y-9112000D01*
X22997962Y-9092962D02*
X22997962Y-9001038D01*
X22906038Y-9001038D01*
X22906038Y-9092962D01*
X22997962Y-9092962D01*
X22887000Y-10202000D02*
X23017000Y-10332000D01*
X23017000Y-10202000D02*
X22887000Y-10332000D01*
X22997962Y-10312962D02*
X22997962Y-10221038D01*
X22906038Y-10221038D01*
X22906038Y-10312962D01*
X22997962Y-10312962D01*
D10*
X15320119Y-14720524D02*
X15320119Y-14520524D01*
X15320119Y-14520524D02*
X15367738Y-14520524D01*
X15367738Y-14520524D02*
X15396309Y-14530048D01*
X15396309Y-14530048D02*
X15415357Y-14549095D01*
X15415357Y-14549095D02*
X15424881Y-14568143D01*
X15424881Y-14568143D02*
X15434405Y-14606238D01*
X15434405Y-14606238D02*
X15434405Y-14634809D01*
X15434405Y-14634809D02*
X15424881Y-14672905D01*
X15424881Y-14672905D02*
X15415357Y-14691952D01*
X15415357Y-14691952D02*
X15396309Y-14711000D01*
X15396309Y-14711000D02*
X15367738Y-14720524D01*
X15367738Y-14720524D02*
X15320119Y-14720524D01*
X15520119Y-14720524D02*
X15520119Y-14587190D01*
X15520119Y-14625286D02*
X15529643Y-14606238D01*
X15529643Y-14606238D02*
X15539167Y-14596714D01*
X15539167Y-14596714D02*
X15558214Y-14587190D01*
X15558214Y-14587190D02*
X15577262Y-14587190D01*
X15643928Y-14720524D02*
X15643928Y-14587190D01*
X15643928Y-14520524D02*
X15634405Y-14530048D01*
X15634405Y-14530048D02*
X15643928Y-14539571D01*
X15643928Y-14539571D02*
X15653452Y-14530048D01*
X15653452Y-14530048D02*
X15643928Y-14520524D01*
X15643928Y-14520524D02*
X15643928Y-14539571D01*
X15767738Y-14720524D02*
X15748690Y-14711000D01*
X15748690Y-14711000D02*
X15739167Y-14691952D01*
X15739167Y-14691952D02*
X15739167Y-14520524D01*
X15872500Y-14720524D02*
X15853452Y-14711000D01*
X15853452Y-14711000D02*
X15843928Y-14691952D01*
X15843928Y-14691952D02*
X15843928Y-14520524D01*
X16101071Y-14720524D02*
X16101071Y-14520524D01*
X16101071Y-14520524D02*
X16167738Y-14663381D01*
X16167738Y-14663381D02*
X16234405Y-14520524D01*
X16234405Y-14520524D02*
X16234405Y-14720524D01*
X16415357Y-14720524D02*
X16415357Y-14615762D01*
X16415357Y-14615762D02*
X16405833Y-14596714D01*
X16405833Y-14596714D02*
X16386786Y-14587190D01*
X16386786Y-14587190D02*
X16348690Y-14587190D01*
X16348690Y-14587190D02*
X16329643Y-14596714D01*
X16415357Y-14711000D02*
X16396309Y-14720524D01*
X16396309Y-14720524D02*
X16348690Y-14720524D01*
X16348690Y-14720524D02*
X16329643Y-14711000D01*
X16329643Y-14711000D02*
X16320119Y-14691952D01*
X16320119Y-14691952D02*
X16320119Y-14672905D01*
X16320119Y-14672905D02*
X16329643Y-14653857D01*
X16329643Y-14653857D02*
X16348690Y-14644333D01*
X16348690Y-14644333D02*
X16396309Y-14644333D01*
X16396309Y-14644333D02*
X16415357Y-14634809D01*
X16510595Y-14587190D02*
X16510595Y-14787190D01*
X16510595Y-14596714D02*
X16529643Y-14587190D01*
X16529643Y-14587190D02*
X16567738Y-14587190D01*
X16567738Y-14587190D02*
X16586786Y-14596714D01*
X16586786Y-14596714D02*
X16596309Y-14606238D01*
X16596309Y-14606238D02*
X16605833Y-14625286D01*
X16605833Y-14625286D02*
X16605833Y-14682428D01*
X16605833Y-14682428D02*
X16596309Y-14701476D01*
X16596309Y-14701476D02*
X16586786Y-14711000D01*
X16586786Y-14711000D02*
X16567738Y-14720524D01*
X16567738Y-14720524D02*
X16529643Y-14720524D01*
X16529643Y-14720524D02*
X16510595Y-14711000D01*
X16691548Y-14701476D02*
X16701071Y-14711000D01*
X16701071Y-14711000D02*
X16691548Y-14720524D01*
X16691548Y-14720524D02*
X16682024Y-14711000D01*
X16682024Y-14711000D02*
X16691548Y-14701476D01*
X16691548Y-14701476D02*
X16691548Y-14720524D01*
X16691548Y-14596714D02*
X16701071Y-14606238D01*
X16701071Y-14606238D02*
X16691548Y-14615762D01*
X16691548Y-14615762D02*
X16682024Y-14606238D01*
X16682024Y-14606238D02*
X16691548Y-14596714D01*
X16691548Y-14596714D02*
X16691548Y-14615762D01*
D11*
X15032500Y-15028000D02*
X15072500Y-15068000D01*
X15072500Y-15028000D02*
X15032500Y-15068000D01*
D10*
X15358214Y-14940524D02*
X15377262Y-14940524D01*
X15377262Y-14940524D02*
X15396309Y-14950048D01*
X15396309Y-14950048D02*
X15405833Y-14959571D01*
X15405833Y-14959571D02*
X15415357Y-14978619D01*
X15415357Y-14978619D02*
X15424881Y-15016714D01*
X15424881Y-15016714D02*
X15424881Y-15064333D01*
X15424881Y-15064333D02*
X15415357Y-15102428D01*
X15415357Y-15102428D02*
X15405833Y-15121476D01*
X15405833Y-15121476D02*
X15396309Y-15131000D01*
X15396309Y-15131000D02*
X15377262Y-15140524D01*
X15377262Y-15140524D02*
X15358214Y-15140524D01*
X15358214Y-15140524D02*
X15339167Y-15131000D01*
X15339167Y-15131000D02*
X15329643Y-15121476D01*
X15329643Y-15121476D02*
X15320119Y-15102428D01*
X15320119Y-15102428D02*
X15310595Y-15064333D01*
X15310595Y-15064333D02*
X15310595Y-15016714D01*
X15310595Y-15016714D02*
X15320119Y-14978619D01*
X15320119Y-14978619D02*
X15329643Y-14959571D01*
X15329643Y-14959571D02*
X15339167Y-14950048D01*
X15339167Y-14950048D02*
X15358214Y-14940524D01*
X15510595Y-15121476D02*
X15520119Y-15131000D01*
X15520119Y-15131000D02*
X15510595Y-15140524D01*
X15510595Y-15140524D02*
X15501071Y-15131000D01*
X15501071Y-15131000D02*
X15510595Y-15121476D01*
X15510595Y-15121476D02*
X15510595Y-15140524D01*
X15691548Y-15007190D02*
X15691548Y-15140524D01*
X15643928Y-14931000D02*
X15596309Y-15073857D01*
X15596309Y-15073857D02*
X15720119Y-15073857D01*
X15834405Y-14940524D02*
X15853452Y-14940524D01*
X15853452Y-14940524D02*
X15872500Y-14950048D01*
X15872500Y-14950048D02*
X15882024Y-14959571D01*
X15882024Y-14959571D02*
X15891548Y-14978619D01*
X15891548Y-14978619D02*
X15901071Y-15016714D01*
X15901071Y-15016714D02*
X15901071Y-15064333D01*
X15901071Y-15064333D02*
X15891548Y-15102428D01*
X15891548Y-15102428D02*
X15882024Y-15121476D01*
X15882024Y-15121476D02*
X15872500Y-15131000D01*
X15872500Y-15131000D02*
X15853452Y-15140524D01*
X15853452Y-15140524D02*
X15834405Y-15140524D01*
X15834405Y-15140524D02*
X15815357Y-15131000D01*
X15815357Y-15131000D02*
X15805833Y-15121476D01*
X15805833Y-15121476D02*
X15796309Y-15102428D01*
X15796309Y-15102428D02*
X15786786Y-15064333D01*
X15786786Y-15064333D02*
X15786786Y-15016714D01*
X15786786Y-15016714D02*
X15796309Y-14978619D01*
X15796309Y-14978619D02*
X15805833Y-14959571D01*
X15805833Y-14959571D02*
X15815357Y-14950048D01*
X15815357Y-14950048D02*
X15834405Y-14940524D01*
X16024881Y-14940524D02*
X16043929Y-14940524D01*
X16043929Y-14940524D02*
X16062976Y-14950048D01*
X16062976Y-14950048D02*
X16072500Y-14959571D01*
X16072500Y-14959571D02*
X16082024Y-14978619D01*
X16082024Y-14978619D02*
X16091548Y-15016714D01*
X16091548Y-15016714D02*
X16091548Y-15064333D01*
X16091548Y-15064333D02*
X16082024Y-15102428D01*
X16082024Y-15102428D02*
X16072500Y-15121476D01*
X16072500Y-15121476D02*
X16062976Y-15131000D01*
X16062976Y-15131000D02*
X16043929Y-15140524D01*
X16043929Y-15140524D02*
X16024881Y-15140524D01*
X16024881Y-15140524D02*
X16005833Y-15131000D01*
X16005833Y-15131000D02*
X15996309Y-15121476D01*
X15996309Y-15121476D02*
X15986786Y-15102428D01*
X15986786Y-15102428D02*
X15977262Y-15064333D01*
X15977262Y-15064333D02*
X15977262Y-15016714D01*
X15977262Y-15016714D02*
X15986786Y-14978619D01*
X15986786Y-14978619D02*
X15996309Y-14959571D01*
X15996309Y-14959571D02*
X16005833Y-14950048D01*
X16005833Y-14950048D02*
X16024881Y-14940524D01*
X16177262Y-15140524D02*
X16177262Y-15007190D01*
X16177262Y-15026238D02*
X16186786Y-15016714D01*
X16186786Y-15016714D02*
X16205833Y-15007190D01*
X16205833Y-15007190D02*
X16234405Y-15007190D01*
X16234405Y-15007190D02*
X16253452Y-15016714D01*
X16253452Y-15016714D02*
X16262976Y-15035762D01*
X16262976Y-15035762D02*
X16262976Y-15140524D01*
X16262976Y-15035762D02*
X16272500Y-15016714D01*
X16272500Y-15016714D02*
X16291548Y-15007190D01*
X16291548Y-15007190D02*
X16320119Y-15007190D01*
X16320119Y-15007190D02*
X16339167Y-15016714D01*
X16339167Y-15016714D02*
X16348690Y-15035762D01*
X16348690Y-15035762D02*
X16348690Y-15140524D01*
X16443929Y-15140524D02*
X16443929Y-15007190D01*
X16443929Y-15026238D02*
X16453452Y-15016714D01*
X16453452Y-15016714D02*
X16472500Y-15007190D01*
X16472500Y-15007190D02*
X16501071Y-15007190D01*
X16501071Y-15007190D02*
X16520119Y-15016714D01*
X16520119Y-15016714D02*
X16529643Y-15035762D01*
X16529643Y-15035762D02*
X16529643Y-15140524D01*
X16529643Y-15035762D02*
X16539167Y-15016714D01*
X16539167Y-15016714D02*
X16558214Y-15007190D01*
X16558214Y-15007190D02*
X16586786Y-15007190D01*
X16586786Y-15007190D02*
X16605833Y-15016714D01*
X16605833Y-15016714D02*
X16615357Y-15035762D01*
X16615357Y-15035762D02*
X16615357Y-15140524D01*
X17005833Y-14931000D02*
X16834405Y-15188143D01*
X17262976Y-14940524D02*
X17282024Y-14940524D01*
X17282024Y-14940524D02*
X17301072Y-14950048D01*
X17301072Y-14950048D02*
X17310595Y-14959571D01*
X17310595Y-14959571D02*
X17320119Y-14978619D01*
X17320119Y-14978619D02*
X17329643Y-15016714D01*
X17329643Y-15016714D02*
X17329643Y-15064333D01*
X17329643Y-15064333D02*
X17320119Y-15102428D01*
X17320119Y-15102428D02*
X17310595Y-15121476D01*
X17310595Y-15121476D02*
X17301072Y-15131000D01*
X17301072Y-15131000D02*
X17282024Y-15140524D01*
X17282024Y-15140524D02*
X17262976Y-15140524D01*
X17262976Y-15140524D02*
X17243929Y-15131000D01*
X17243929Y-15131000D02*
X17234405Y-15121476D01*
X17234405Y-15121476D02*
X17224881Y-15102428D01*
X17224881Y-15102428D02*
X17215357Y-15064333D01*
X17215357Y-15064333D02*
X17215357Y-15016714D01*
X17215357Y-15016714D02*
X17224881Y-14978619D01*
X17224881Y-14978619D02*
X17234405Y-14959571D01*
X17234405Y-14959571D02*
X17243929Y-14950048D01*
X17243929Y-14950048D02*
X17262976Y-14940524D01*
X17415357Y-15121476D02*
X17424881Y-15131000D01*
X17424881Y-15131000D02*
X17415357Y-15140524D01*
X17415357Y-15140524D02*
X17405834Y-15131000D01*
X17405834Y-15131000D02*
X17415357Y-15121476D01*
X17415357Y-15121476D02*
X17415357Y-15140524D01*
X17548691Y-14940524D02*
X17567738Y-14940524D01*
X17567738Y-14940524D02*
X17586786Y-14950048D01*
X17586786Y-14950048D02*
X17596310Y-14959571D01*
X17596310Y-14959571D02*
X17605834Y-14978619D01*
X17605834Y-14978619D02*
X17615357Y-15016714D01*
X17615357Y-15016714D02*
X17615357Y-15064333D01*
X17615357Y-15064333D02*
X17605834Y-15102428D01*
X17605834Y-15102428D02*
X17596310Y-15121476D01*
X17596310Y-15121476D02*
X17586786Y-15131000D01*
X17586786Y-15131000D02*
X17567738Y-15140524D01*
X17567738Y-15140524D02*
X17548691Y-15140524D01*
X17548691Y-15140524D02*
X17529643Y-15131000D01*
X17529643Y-15131000D02*
X17520119Y-15121476D01*
X17520119Y-15121476D02*
X17510595Y-15102428D01*
X17510595Y-15102428D02*
X17501072Y-15064333D01*
X17501072Y-15064333D02*
X17501072Y-15016714D01*
X17501072Y-15016714D02*
X17510595Y-14978619D01*
X17510595Y-14978619D02*
X17520119Y-14959571D01*
X17520119Y-14959571D02*
X17529643Y-14950048D01*
X17529643Y-14950048D02*
X17548691Y-14940524D01*
X17805834Y-15140524D02*
X17691548Y-15140524D01*
X17748691Y-15140524D02*
X17748691Y-14940524D01*
X17748691Y-14940524D02*
X17729643Y-14969095D01*
X17729643Y-14969095D02*
X17710595Y-14988143D01*
X17710595Y-14988143D02*
X17691548Y-14997667D01*
X17986786Y-14940524D02*
X17891548Y-14940524D01*
X17891548Y-14940524D02*
X17882024Y-15035762D01*
X17882024Y-15035762D02*
X17891548Y-15026238D01*
X17891548Y-15026238D02*
X17910595Y-15016714D01*
X17910595Y-15016714D02*
X17958215Y-15016714D01*
X17958215Y-15016714D02*
X17977262Y-15026238D01*
X17977262Y-15026238D02*
X17986786Y-15035762D01*
X17986786Y-15035762D02*
X17996310Y-15054809D01*
X17996310Y-15054809D02*
X17996310Y-15102428D01*
X17996310Y-15102428D02*
X17986786Y-15121476D01*
X17986786Y-15121476D02*
X17977262Y-15131000D01*
X17977262Y-15131000D02*
X17958215Y-15140524D01*
X17958215Y-15140524D02*
X17910595Y-15140524D01*
X17910595Y-15140524D02*
X17891548Y-15131000D01*
X17891548Y-15131000D02*
X17882024Y-15121476D01*
X18062976Y-14940524D02*
X18196310Y-14940524D01*
X18196310Y-14940524D02*
X18110595Y-15140524D01*
X18262976Y-14940524D02*
X18262976Y-14978619D01*
X18339167Y-14940524D02*
X18339167Y-14978619D01*
X18634405Y-15216714D02*
X18624881Y-15207190D01*
X18624881Y-15207190D02*
X18605834Y-15178619D01*
X18605834Y-15178619D02*
X18596310Y-15159571D01*
X18596310Y-15159571D02*
X18586786Y-15131000D01*
X18586786Y-15131000D02*
X18577262Y-15083381D01*
X18577262Y-15083381D02*
X18577262Y-15045286D01*
X18577262Y-15045286D02*
X18586786Y-14997667D01*
X18586786Y-14997667D02*
X18596310Y-14969095D01*
X18596310Y-14969095D02*
X18605834Y-14950048D01*
X18605834Y-14950048D02*
X18624881Y-14921476D01*
X18624881Y-14921476D02*
X18634405Y-14911952D01*
X18805834Y-14940524D02*
X18710596Y-14940524D01*
X18710596Y-14940524D02*
X18701072Y-15035762D01*
X18701072Y-15035762D02*
X18710596Y-15026238D01*
X18710596Y-15026238D02*
X18729643Y-15016714D01*
X18729643Y-15016714D02*
X18777262Y-15016714D01*
X18777262Y-15016714D02*
X18796310Y-15026238D01*
X18796310Y-15026238D02*
X18805834Y-15035762D01*
X18805834Y-15035762D02*
X18815357Y-15054809D01*
X18815357Y-15054809D02*
X18815357Y-15102428D01*
X18815357Y-15102428D02*
X18805834Y-15121476D01*
X18805834Y-15121476D02*
X18796310Y-15131000D01*
X18796310Y-15131000D02*
X18777262Y-15140524D01*
X18777262Y-15140524D02*
X18729643Y-15140524D01*
X18729643Y-15140524D02*
X18710596Y-15131000D01*
X18710596Y-15131000D02*
X18701072Y-15121476D01*
X18986786Y-15007190D02*
X18986786Y-15140524D01*
X18939167Y-14931000D02*
X18891548Y-15073857D01*
X18891548Y-15073857D02*
X19015357Y-15073857D01*
X19243929Y-15140524D02*
X19243929Y-14940524D01*
X19329643Y-15140524D02*
X19329643Y-15035762D01*
X19329643Y-15035762D02*
X19320119Y-15016714D01*
X19320119Y-15016714D02*
X19301072Y-15007190D01*
X19301072Y-15007190D02*
X19272500Y-15007190D01*
X19272500Y-15007190D02*
X19253453Y-15016714D01*
X19253453Y-15016714D02*
X19243929Y-15026238D01*
X19453453Y-15140524D02*
X19434405Y-15131000D01*
X19434405Y-15131000D02*
X19424881Y-15121476D01*
X19424881Y-15121476D02*
X19415358Y-15102428D01*
X19415358Y-15102428D02*
X19415358Y-15045286D01*
X19415358Y-15045286D02*
X19424881Y-15026238D01*
X19424881Y-15026238D02*
X19434405Y-15016714D01*
X19434405Y-15016714D02*
X19453453Y-15007190D01*
X19453453Y-15007190D02*
X19482024Y-15007190D01*
X19482024Y-15007190D02*
X19501072Y-15016714D01*
X19501072Y-15016714D02*
X19510596Y-15026238D01*
X19510596Y-15026238D02*
X19520119Y-15045286D01*
X19520119Y-15045286D02*
X19520119Y-15102428D01*
X19520119Y-15102428D02*
X19510596Y-15121476D01*
X19510596Y-15121476D02*
X19501072Y-15131000D01*
X19501072Y-15131000D02*
X19482024Y-15140524D01*
X19482024Y-15140524D02*
X19453453Y-15140524D01*
X19634405Y-15140524D02*
X19615358Y-15131000D01*
X19615358Y-15131000D02*
X19605834Y-15111952D01*
X19605834Y-15111952D02*
X19605834Y-14940524D01*
X19786786Y-15131000D02*
X19767739Y-15140524D01*
X19767739Y-15140524D02*
X19729643Y-15140524D01*
X19729643Y-15140524D02*
X19710596Y-15131000D01*
X19710596Y-15131000D02*
X19701072Y-15111952D01*
X19701072Y-15111952D02*
X19701072Y-15035762D01*
X19701072Y-15035762D02*
X19710596Y-15016714D01*
X19710596Y-15016714D02*
X19729643Y-15007190D01*
X19729643Y-15007190D02*
X19767739Y-15007190D01*
X19767739Y-15007190D02*
X19786786Y-15016714D01*
X19786786Y-15016714D02*
X19796310Y-15035762D01*
X19796310Y-15035762D02*
X19796310Y-15054809D01*
X19796310Y-15054809D02*
X19701072Y-15073857D01*
X19872500Y-15131000D02*
X19891548Y-15140524D01*
X19891548Y-15140524D02*
X19929643Y-15140524D01*
X19929643Y-15140524D02*
X19948691Y-15131000D01*
X19948691Y-15131000D02*
X19958215Y-15111952D01*
X19958215Y-15111952D02*
X19958215Y-15102428D01*
X19958215Y-15102428D02*
X19948691Y-15083381D01*
X19948691Y-15083381D02*
X19929643Y-15073857D01*
X19929643Y-15073857D02*
X19901072Y-15073857D01*
X19901072Y-15073857D02*
X19882024Y-15064333D01*
X19882024Y-15064333D02*
X19872500Y-15045286D01*
X19872500Y-15045286D02*
X19872500Y-15035762D01*
X19872500Y-15035762D02*
X19882024Y-15016714D01*
X19882024Y-15016714D02*
X19901072Y-15007190D01*
X19901072Y-15007190D02*
X19929643Y-15007190D01*
X19929643Y-15007190D02*
X19948691Y-15016714D01*
X20024881Y-15216714D02*
X20034405Y-15207190D01*
X20034405Y-15207190D02*
X20053453Y-15178619D01*
X20053453Y-15178619D02*
X20062977Y-15159571D01*
X20062977Y-15159571D02*
X20072500Y-15131000D01*
X20072500Y-15131000D02*
X20082024Y-15083381D01*
X20082024Y-15083381D02*
X20082024Y-15045286D01*
X20082024Y-15045286D02*
X20072500Y-14997667D01*
X20072500Y-14997667D02*
X20062977Y-14969095D01*
X20062977Y-14969095D02*
X20053453Y-14950048D01*
X20053453Y-14950048D02*
X20034405Y-14921476D01*
X20034405Y-14921476D02*
X20024881Y-14911952D01*
D12*
X15072500Y-15312000D02*
G75*
G03*
X15072500Y-15312000I-25000J0D01*
G01*
D10*
X15358214Y-15204524D02*
X15377262Y-15204524D01*
X15377262Y-15204524D02*
X15396309Y-15214048D01*
X15396309Y-15214048D02*
X15405833Y-15223571D01*
X15405833Y-15223571D02*
X15415357Y-15242619D01*
X15415357Y-15242619D02*
X15424881Y-15280714D01*
X15424881Y-15280714D02*
X15424881Y-15328333D01*
X15424881Y-15328333D02*
X15415357Y-15366428D01*
X15415357Y-15366428D02*
X15405833Y-15385476D01*
X15405833Y-15385476D02*
X15396309Y-15395000D01*
X15396309Y-15395000D02*
X15377262Y-15404524D01*
X15377262Y-15404524D02*
X15358214Y-15404524D01*
X15358214Y-15404524D02*
X15339167Y-15395000D01*
X15339167Y-15395000D02*
X15329643Y-15385476D01*
X15329643Y-15385476D02*
X15320119Y-15366428D01*
X15320119Y-15366428D02*
X15310595Y-15328333D01*
X15310595Y-15328333D02*
X15310595Y-15280714D01*
X15310595Y-15280714D02*
X15320119Y-15242619D01*
X15320119Y-15242619D02*
X15329643Y-15223571D01*
X15329643Y-15223571D02*
X15339167Y-15214048D01*
X15339167Y-15214048D02*
X15358214Y-15204524D01*
X15510595Y-15385476D02*
X15520119Y-15395000D01*
X15520119Y-15395000D02*
X15510595Y-15404524D01*
X15510595Y-15404524D02*
X15501071Y-15395000D01*
X15501071Y-15395000D02*
X15510595Y-15385476D01*
X15510595Y-15385476D02*
X15510595Y-15404524D01*
X15701071Y-15204524D02*
X15605833Y-15204524D01*
X15605833Y-15204524D02*
X15596309Y-15299762D01*
X15596309Y-15299762D02*
X15605833Y-15290238D01*
X15605833Y-15290238D02*
X15624881Y-15280714D01*
X15624881Y-15280714D02*
X15672500Y-15280714D01*
X15672500Y-15280714D02*
X15691548Y-15290238D01*
X15691548Y-15290238D02*
X15701071Y-15299762D01*
X15701071Y-15299762D02*
X15710595Y-15318809D01*
X15710595Y-15318809D02*
X15710595Y-15366428D01*
X15710595Y-15366428D02*
X15701071Y-15385476D01*
X15701071Y-15385476D02*
X15691548Y-15395000D01*
X15691548Y-15395000D02*
X15672500Y-15404524D01*
X15672500Y-15404524D02*
X15624881Y-15404524D01*
X15624881Y-15404524D02*
X15605833Y-15395000D01*
X15605833Y-15395000D02*
X15596309Y-15385476D01*
X15834405Y-15204524D02*
X15853452Y-15204524D01*
X15853452Y-15204524D02*
X15872500Y-15214048D01*
X15872500Y-15214048D02*
X15882024Y-15223571D01*
X15882024Y-15223571D02*
X15891548Y-15242619D01*
X15891548Y-15242619D02*
X15901071Y-15280714D01*
X15901071Y-15280714D02*
X15901071Y-15328333D01*
X15901071Y-15328333D02*
X15891548Y-15366428D01*
X15891548Y-15366428D02*
X15882024Y-15385476D01*
X15882024Y-15385476D02*
X15872500Y-15395000D01*
X15872500Y-15395000D02*
X15853452Y-15404524D01*
X15853452Y-15404524D02*
X15834405Y-15404524D01*
X15834405Y-15404524D02*
X15815357Y-15395000D01*
X15815357Y-15395000D02*
X15805833Y-15385476D01*
X15805833Y-15385476D02*
X15796309Y-15366428D01*
X15796309Y-15366428D02*
X15786786Y-15328333D01*
X15786786Y-15328333D02*
X15786786Y-15280714D01*
X15786786Y-15280714D02*
X15796309Y-15242619D01*
X15796309Y-15242619D02*
X15805833Y-15223571D01*
X15805833Y-15223571D02*
X15815357Y-15214048D01*
X15815357Y-15214048D02*
X15834405Y-15204524D01*
X16024881Y-15204524D02*
X16043929Y-15204524D01*
X16043929Y-15204524D02*
X16062976Y-15214048D01*
X16062976Y-15214048D02*
X16072500Y-15223571D01*
X16072500Y-15223571D02*
X16082024Y-15242619D01*
X16082024Y-15242619D02*
X16091548Y-15280714D01*
X16091548Y-15280714D02*
X16091548Y-15328333D01*
X16091548Y-15328333D02*
X16082024Y-15366428D01*
X16082024Y-15366428D02*
X16072500Y-15385476D01*
X16072500Y-15385476D02*
X16062976Y-15395000D01*
X16062976Y-15395000D02*
X16043929Y-15404524D01*
X16043929Y-15404524D02*
X16024881Y-15404524D01*
X16024881Y-15404524D02*
X16005833Y-15395000D01*
X16005833Y-15395000D02*
X15996309Y-15385476D01*
X15996309Y-15385476D02*
X15986786Y-15366428D01*
X15986786Y-15366428D02*
X15977262Y-15328333D01*
X15977262Y-15328333D02*
X15977262Y-15280714D01*
X15977262Y-15280714D02*
X15986786Y-15242619D01*
X15986786Y-15242619D02*
X15996309Y-15223571D01*
X15996309Y-15223571D02*
X16005833Y-15214048D01*
X16005833Y-15214048D02*
X16024881Y-15204524D01*
X16177262Y-15404524D02*
X16177262Y-15271190D01*
X16177262Y-15290238D02*
X16186786Y-15280714D01*
X16186786Y-15280714D02*
X16205833Y-15271190D01*
X16205833Y-15271190D02*
X16234405Y-15271190D01*
X16234405Y-15271190D02*
X16253452Y-15280714D01*
X16253452Y-15280714D02*
X16262976Y-15299762D01*
X16262976Y-15299762D02*
X16262976Y-15404524D01*
X16262976Y-15299762D02*
X16272500Y-15280714D01*
X16272500Y-15280714D02*
X16291548Y-15271190D01*
X16291548Y-15271190D02*
X16320119Y-15271190D01*
X16320119Y-15271190D02*
X16339167Y-15280714D01*
X16339167Y-15280714D02*
X16348690Y-15299762D01*
X16348690Y-15299762D02*
X16348690Y-15404524D01*
X16443929Y-15404524D02*
X16443929Y-15271190D01*
X16443929Y-15290238D02*
X16453452Y-15280714D01*
X16453452Y-15280714D02*
X16472500Y-15271190D01*
X16472500Y-15271190D02*
X16501071Y-15271190D01*
X16501071Y-15271190D02*
X16520119Y-15280714D01*
X16520119Y-15280714D02*
X16529643Y-15299762D01*
X16529643Y-15299762D02*
X16529643Y-15404524D01*
X16529643Y-15299762D02*
X16539167Y-15280714D01*
X16539167Y-15280714D02*
X16558214Y-15271190D01*
X16558214Y-15271190D02*
X16586786Y-15271190D01*
X16586786Y-15271190D02*
X16605833Y-15280714D01*
X16605833Y-15280714D02*
X16615357Y-15299762D01*
X16615357Y-15299762D02*
X16615357Y-15404524D01*
X17005833Y-15195000D02*
X16834405Y-15452143D01*
X17262976Y-15204524D02*
X17282024Y-15204524D01*
X17282024Y-15204524D02*
X17301072Y-15214048D01*
X17301072Y-15214048D02*
X17310595Y-15223571D01*
X17310595Y-15223571D02*
X17320119Y-15242619D01*
X17320119Y-15242619D02*
X17329643Y-15280714D01*
X17329643Y-15280714D02*
X17329643Y-15328333D01*
X17329643Y-15328333D02*
X17320119Y-15366428D01*
X17320119Y-15366428D02*
X17310595Y-15385476D01*
X17310595Y-15385476D02*
X17301072Y-15395000D01*
X17301072Y-15395000D02*
X17282024Y-15404524D01*
X17282024Y-15404524D02*
X17262976Y-15404524D01*
X17262976Y-15404524D02*
X17243929Y-15395000D01*
X17243929Y-15395000D02*
X17234405Y-15385476D01*
X17234405Y-15385476D02*
X17224881Y-15366428D01*
X17224881Y-15366428D02*
X17215357Y-15328333D01*
X17215357Y-15328333D02*
X17215357Y-15280714D01*
X17215357Y-15280714D02*
X17224881Y-15242619D01*
X17224881Y-15242619D02*
X17234405Y-15223571D01*
X17234405Y-15223571D02*
X17243929Y-15214048D01*
X17243929Y-15214048D02*
X17262976Y-15204524D01*
X17415357Y-15385476D02*
X17424881Y-15395000D01*
X17424881Y-15395000D02*
X17415357Y-15404524D01*
X17415357Y-15404524D02*
X17405834Y-15395000D01*
X17405834Y-15395000D02*
X17415357Y-15385476D01*
X17415357Y-15385476D02*
X17415357Y-15404524D01*
X17548691Y-15204524D02*
X17567738Y-15204524D01*
X17567738Y-15204524D02*
X17586786Y-15214048D01*
X17586786Y-15214048D02*
X17596310Y-15223571D01*
X17596310Y-15223571D02*
X17605834Y-15242619D01*
X17605834Y-15242619D02*
X17615357Y-15280714D01*
X17615357Y-15280714D02*
X17615357Y-15328333D01*
X17615357Y-15328333D02*
X17605834Y-15366428D01*
X17605834Y-15366428D02*
X17596310Y-15385476D01*
X17596310Y-15385476D02*
X17586786Y-15395000D01*
X17586786Y-15395000D02*
X17567738Y-15404524D01*
X17567738Y-15404524D02*
X17548691Y-15404524D01*
X17548691Y-15404524D02*
X17529643Y-15395000D01*
X17529643Y-15395000D02*
X17520119Y-15385476D01*
X17520119Y-15385476D02*
X17510595Y-15366428D01*
X17510595Y-15366428D02*
X17501072Y-15328333D01*
X17501072Y-15328333D02*
X17501072Y-15280714D01*
X17501072Y-15280714D02*
X17510595Y-15242619D01*
X17510595Y-15242619D02*
X17520119Y-15223571D01*
X17520119Y-15223571D02*
X17529643Y-15214048D01*
X17529643Y-15214048D02*
X17548691Y-15204524D01*
X17805834Y-15404524D02*
X17691548Y-15404524D01*
X17748691Y-15404524D02*
X17748691Y-15204524D01*
X17748691Y-15204524D02*
X17729643Y-15233095D01*
X17729643Y-15233095D02*
X17710595Y-15252143D01*
X17710595Y-15252143D02*
X17691548Y-15261667D01*
X17901072Y-15404524D02*
X17939167Y-15404524D01*
X17939167Y-15404524D02*
X17958215Y-15395000D01*
X17958215Y-15395000D02*
X17967738Y-15385476D01*
X17967738Y-15385476D02*
X17986786Y-15356905D01*
X17986786Y-15356905D02*
X17996310Y-15318809D01*
X17996310Y-15318809D02*
X17996310Y-15242619D01*
X17996310Y-15242619D02*
X17986786Y-15223571D01*
X17986786Y-15223571D02*
X17977262Y-15214048D01*
X17977262Y-15214048D02*
X17958215Y-15204524D01*
X17958215Y-15204524D02*
X17920119Y-15204524D01*
X17920119Y-15204524D02*
X17901072Y-15214048D01*
X17901072Y-15214048D02*
X17891548Y-15223571D01*
X17891548Y-15223571D02*
X17882024Y-15242619D01*
X17882024Y-15242619D02*
X17882024Y-15290238D01*
X17882024Y-15290238D02*
X17891548Y-15309286D01*
X17891548Y-15309286D02*
X17901072Y-15318809D01*
X17901072Y-15318809D02*
X17920119Y-15328333D01*
X17920119Y-15328333D02*
X17958215Y-15328333D01*
X17958215Y-15328333D02*
X17977262Y-15318809D01*
X17977262Y-15318809D02*
X17986786Y-15309286D01*
X17986786Y-15309286D02*
X17996310Y-15290238D01*
X18062976Y-15204524D02*
X18196310Y-15204524D01*
X18196310Y-15204524D02*
X18110595Y-15404524D01*
X18262976Y-15204524D02*
X18262976Y-15242619D01*
X18339167Y-15204524D02*
X18339167Y-15242619D01*
X18634405Y-15480714D02*
X18624881Y-15471190D01*
X18624881Y-15471190D02*
X18605834Y-15442619D01*
X18605834Y-15442619D02*
X18596310Y-15423571D01*
X18596310Y-15423571D02*
X18586786Y-15395000D01*
X18586786Y-15395000D02*
X18577262Y-15347381D01*
X18577262Y-15347381D02*
X18577262Y-15309286D01*
X18577262Y-15309286D02*
X18586786Y-15261667D01*
X18586786Y-15261667D02*
X18596310Y-15233095D01*
X18596310Y-15233095D02*
X18605834Y-15214048D01*
X18605834Y-15214048D02*
X18624881Y-15185476D01*
X18624881Y-15185476D02*
X18634405Y-15175952D01*
X18701072Y-15223571D02*
X18710596Y-15214048D01*
X18710596Y-15214048D02*
X18729643Y-15204524D01*
X18729643Y-15204524D02*
X18777262Y-15204524D01*
X18777262Y-15204524D02*
X18796310Y-15214048D01*
X18796310Y-15214048D02*
X18805834Y-15223571D01*
X18805834Y-15223571D02*
X18815357Y-15242619D01*
X18815357Y-15242619D02*
X18815357Y-15261667D01*
X18815357Y-15261667D02*
X18805834Y-15290238D01*
X18805834Y-15290238D02*
X18691548Y-15404524D01*
X18691548Y-15404524D02*
X18815357Y-15404524D01*
X19053453Y-15404524D02*
X19053453Y-15204524D01*
X19139167Y-15404524D02*
X19139167Y-15299762D01*
X19139167Y-15299762D02*
X19129643Y-15280714D01*
X19129643Y-15280714D02*
X19110596Y-15271190D01*
X19110596Y-15271190D02*
X19082024Y-15271190D01*
X19082024Y-15271190D02*
X19062977Y-15280714D01*
X19062977Y-15280714D02*
X19053453Y-15290238D01*
X19262977Y-15404524D02*
X19243929Y-15395000D01*
X19243929Y-15395000D02*
X19234405Y-15385476D01*
X19234405Y-15385476D02*
X19224881Y-15366428D01*
X19224881Y-15366428D02*
X19224881Y-15309286D01*
X19224881Y-15309286D02*
X19234405Y-15290238D01*
X19234405Y-15290238D02*
X19243929Y-15280714D01*
X19243929Y-15280714D02*
X19262977Y-15271190D01*
X19262977Y-15271190D02*
X19291548Y-15271190D01*
X19291548Y-15271190D02*
X19310596Y-15280714D01*
X19310596Y-15280714D02*
X19320119Y-15290238D01*
X19320119Y-15290238D02*
X19329643Y-15309286D01*
X19329643Y-15309286D02*
X19329643Y-15366428D01*
X19329643Y-15366428D02*
X19320119Y-15385476D01*
X19320119Y-15385476D02*
X19310596Y-15395000D01*
X19310596Y-15395000D02*
X19291548Y-15404524D01*
X19291548Y-15404524D02*
X19262977Y-15404524D01*
X19443929Y-15404524D02*
X19424881Y-15395000D01*
X19424881Y-15395000D02*
X19415358Y-15375952D01*
X19415358Y-15375952D02*
X19415358Y-15204524D01*
X19596310Y-15395000D02*
X19577262Y-15404524D01*
X19577262Y-15404524D02*
X19539167Y-15404524D01*
X19539167Y-15404524D02*
X19520119Y-15395000D01*
X19520119Y-15395000D02*
X19510596Y-15375952D01*
X19510596Y-15375952D02*
X19510596Y-15299762D01*
X19510596Y-15299762D02*
X19520119Y-15280714D01*
X19520119Y-15280714D02*
X19539167Y-15271190D01*
X19539167Y-15271190D02*
X19577262Y-15271190D01*
X19577262Y-15271190D02*
X19596310Y-15280714D01*
X19596310Y-15280714D02*
X19605834Y-15299762D01*
X19605834Y-15299762D02*
X19605834Y-15318809D01*
X19605834Y-15318809D02*
X19510596Y-15337857D01*
X19682024Y-15395000D02*
X19701072Y-15404524D01*
X19701072Y-15404524D02*
X19739167Y-15404524D01*
X19739167Y-15404524D02*
X19758215Y-15395000D01*
X19758215Y-15395000D02*
X19767739Y-15375952D01*
X19767739Y-15375952D02*
X19767739Y-15366428D01*
X19767739Y-15366428D02*
X19758215Y-15347381D01*
X19758215Y-15347381D02*
X19739167Y-15337857D01*
X19739167Y-15337857D02*
X19710596Y-15337857D01*
X19710596Y-15337857D02*
X19691548Y-15328333D01*
X19691548Y-15328333D02*
X19682024Y-15309286D01*
X19682024Y-15309286D02*
X19682024Y-15299762D01*
X19682024Y-15299762D02*
X19691548Y-15280714D01*
X19691548Y-15280714D02*
X19710596Y-15271190D01*
X19710596Y-15271190D02*
X19739167Y-15271190D01*
X19739167Y-15271190D02*
X19758215Y-15280714D01*
X19834405Y-15480714D02*
X19843929Y-15471190D01*
X19843929Y-15471190D02*
X19862977Y-15442619D01*
X19862977Y-15442619D02*
X19872500Y-15423571D01*
X19872500Y-15423571D02*
X19882024Y-15395000D01*
X19882024Y-15395000D02*
X19891548Y-15347381D01*
X19891548Y-15347381D02*
X19891548Y-15309286D01*
X19891548Y-15309286D02*
X19882024Y-15261667D01*
X19882024Y-15261667D02*
X19872500Y-15233095D01*
X19872500Y-15233095D02*
X19862977Y-15214048D01*
X19862977Y-15214048D02*
X19843929Y-15185476D01*
X19843929Y-15185476D02*
X19834405Y-15175952D01*
D13*
X15042500Y-15546000D02*
X15042500Y-15606000D01*
X15012500Y-15576000D02*
X15072500Y-15576000D01*
D10*
X15358214Y-15468524D02*
X15377262Y-15468524D01*
X15377262Y-15468524D02*
X15396309Y-15478048D01*
X15396309Y-15478048D02*
X15405833Y-15487571D01*
X15405833Y-15487571D02*
X15415357Y-15506619D01*
X15415357Y-15506619D02*
X15424881Y-15544714D01*
X15424881Y-15544714D02*
X15424881Y-15592333D01*
X15424881Y-15592333D02*
X15415357Y-15630428D01*
X15415357Y-15630428D02*
X15405833Y-15649476D01*
X15405833Y-15649476D02*
X15396309Y-15659000D01*
X15396309Y-15659000D02*
X15377262Y-15668524D01*
X15377262Y-15668524D02*
X15358214Y-15668524D01*
X15358214Y-15668524D02*
X15339167Y-15659000D01*
X15339167Y-15659000D02*
X15329643Y-15649476D01*
X15329643Y-15649476D02*
X15320119Y-15630428D01*
X15320119Y-15630428D02*
X15310595Y-15592333D01*
X15310595Y-15592333D02*
X15310595Y-15544714D01*
X15310595Y-15544714D02*
X15320119Y-15506619D01*
X15320119Y-15506619D02*
X15329643Y-15487571D01*
X15329643Y-15487571D02*
X15339167Y-15478048D01*
X15339167Y-15478048D02*
X15358214Y-15468524D01*
X15510595Y-15649476D02*
X15520119Y-15659000D01*
X15520119Y-15659000D02*
X15510595Y-15668524D01*
X15510595Y-15668524D02*
X15501071Y-15659000D01*
X15501071Y-15659000D02*
X15510595Y-15649476D01*
X15510595Y-15649476D02*
X15510595Y-15668524D01*
X15691548Y-15468524D02*
X15653452Y-15468524D01*
X15653452Y-15468524D02*
X15634405Y-15478048D01*
X15634405Y-15478048D02*
X15624881Y-15487571D01*
X15624881Y-15487571D02*
X15605833Y-15516143D01*
X15605833Y-15516143D02*
X15596309Y-15554238D01*
X15596309Y-15554238D02*
X15596309Y-15630428D01*
X15596309Y-15630428D02*
X15605833Y-15649476D01*
X15605833Y-15649476D02*
X15615357Y-15659000D01*
X15615357Y-15659000D02*
X15634405Y-15668524D01*
X15634405Y-15668524D02*
X15672500Y-15668524D01*
X15672500Y-15668524D02*
X15691548Y-15659000D01*
X15691548Y-15659000D02*
X15701071Y-15649476D01*
X15701071Y-15649476D02*
X15710595Y-15630428D01*
X15710595Y-15630428D02*
X15710595Y-15582809D01*
X15710595Y-15582809D02*
X15701071Y-15563762D01*
X15701071Y-15563762D02*
X15691548Y-15554238D01*
X15691548Y-15554238D02*
X15672500Y-15544714D01*
X15672500Y-15544714D02*
X15634405Y-15544714D01*
X15634405Y-15544714D02*
X15615357Y-15554238D01*
X15615357Y-15554238D02*
X15605833Y-15563762D01*
X15605833Y-15563762D02*
X15596309Y-15582809D01*
X15834405Y-15468524D02*
X15853452Y-15468524D01*
X15853452Y-15468524D02*
X15872500Y-15478048D01*
X15872500Y-15478048D02*
X15882024Y-15487571D01*
X15882024Y-15487571D02*
X15891548Y-15506619D01*
X15891548Y-15506619D02*
X15901071Y-15544714D01*
X15901071Y-15544714D02*
X15901071Y-15592333D01*
X15901071Y-15592333D02*
X15891548Y-15630428D01*
X15891548Y-15630428D02*
X15882024Y-15649476D01*
X15882024Y-15649476D02*
X15872500Y-15659000D01*
X15872500Y-15659000D02*
X15853452Y-15668524D01*
X15853452Y-15668524D02*
X15834405Y-15668524D01*
X15834405Y-15668524D02*
X15815357Y-15659000D01*
X15815357Y-15659000D02*
X15805833Y-15649476D01*
X15805833Y-15649476D02*
X15796309Y-15630428D01*
X15796309Y-15630428D02*
X15786786Y-15592333D01*
X15786786Y-15592333D02*
X15786786Y-15544714D01*
X15786786Y-15544714D02*
X15796309Y-15506619D01*
X15796309Y-15506619D02*
X15805833Y-15487571D01*
X15805833Y-15487571D02*
X15815357Y-15478048D01*
X15815357Y-15478048D02*
X15834405Y-15468524D01*
X16024881Y-15468524D02*
X16043929Y-15468524D01*
X16043929Y-15468524D02*
X16062976Y-15478048D01*
X16062976Y-15478048D02*
X16072500Y-15487571D01*
X16072500Y-15487571D02*
X16082024Y-15506619D01*
X16082024Y-15506619D02*
X16091548Y-15544714D01*
X16091548Y-15544714D02*
X16091548Y-15592333D01*
X16091548Y-15592333D02*
X16082024Y-15630428D01*
X16082024Y-15630428D02*
X16072500Y-15649476D01*
X16072500Y-15649476D02*
X16062976Y-15659000D01*
X16062976Y-15659000D02*
X16043929Y-15668524D01*
X16043929Y-15668524D02*
X16024881Y-15668524D01*
X16024881Y-15668524D02*
X16005833Y-15659000D01*
X16005833Y-15659000D02*
X15996309Y-15649476D01*
X15996309Y-15649476D02*
X15986786Y-15630428D01*
X15986786Y-15630428D02*
X15977262Y-15592333D01*
X15977262Y-15592333D02*
X15977262Y-15544714D01*
X15977262Y-15544714D02*
X15986786Y-15506619D01*
X15986786Y-15506619D02*
X15996309Y-15487571D01*
X15996309Y-15487571D02*
X16005833Y-15478048D01*
X16005833Y-15478048D02*
X16024881Y-15468524D01*
X16177262Y-15668524D02*
X16177262Y-15535190D01*
X16177262Y-15554238D02*
X16186786Y-15544714D01*
X16186786Y-15544714D02*
X16205833Y-15535190D01*
X16205833Y-15535190D02*
X16234405Y-15535190D01*
X16234405Y-15535190D02*
X16253452Y-15544714D01*
X16253452Y-15544714D02*
X16262976Y-15563762D01*
X16262976Y-15563762D02*
X16262976Y-15668524D01*
X16262976Y-15563762D02*
X16272500Y-15544714D01*
X16272500Y-15544714D02*
X16291548Y-15535190D01*
X16291548Y-15535190D02*
X16320119Y-15535190D01*
X16320119Y-15535190D02*
X16339167Y-15544714D01*
X16339167Y-15544714D02*
X16348690Y-15563762D01*
X16348690Y-15563762D02*
X16348690Y-15668524D01*
X16443929Y-15668524D02*
X16443929Y-15535190D01*
X16443929Y-15554238D02*
X16453452Y-15544714D01*
X16453452Y-15544714D02*
X16472500Y-15535190D01*
X16472500Y-15535190D02*
X16501071Y-15535190D01*
X16501071Y-15535190D02*
X16520119Y-15544714D01*
X16520119Y-15544714D02*
X16529643Y-15563762D01*
X16529643Y-15563762D02*
X16529643Y-15668524D01*
X16529643Y-15563762D02*
X16539167Y-15544714D01*
X16539167Y-15544714D02*
X16558214Y-15535190D01*
X16558214Y-15535190D02*
X16586786Y-15535190D01*
X16586786Y-15535190D02*
X16605833Y-15544714D01*
X16605833Y-15544714D02*
X16615357Y-15563762D01*
X16615357Y-15563762D02*
X16615357Y-15668524D01*
X17005833Y-15459000D02*
X16834405Y-15716143D01*
X17262976Y-15468524D02*
X17282024Y-15468524D01*
X17282024Y-15468524D02*
X17301072Y-15478048D01*
X17301072Y-15478048D02*
X17310595Y-15487571D01*
X17310595Y-15487571D02*
X17320119Y-15506619D01*
X17320119Y-15506619D02*
X17329643Y-15544714D01*
X17329643Y-15544714D02*
X17329643Y-15592333D01*
X17329643Y-15592333D02*
X17320119Y-15630428D01*
X17320119Y-15630428D02*
X17310595Y-15649476D01*
X17310595Y-15649476D02*
X17301072Y-15659000D01*
X17301072Y-15659000D02*
X17282024Y-15668524D01*
X17282024Y-15668524D02*
X17262976Y-15668524D01*
X17262976Y-15668524D02*
X17243929Y-15659000D01*
X17243929Y-15659000D02*
X17234405Y-15649476D01*
X17234405Y-15649476D02*
X17224881Y-15630428D01*
X17224881Y-15630428D02*
X17215357Y-15592333D01*
X17215357Y-15592333D02*
X17215357Y-15544714D01*
X17215357Y-15544714D02*
X17224881Y-15506619D01*
X17224881Y-15506619D02*
X17234405Y-15487571D01*
X17234405Y-15487571D02*
X17243929Y-15478048D01*
X17243929Y-15478048D02*
X17262976Y-15468524D01*
X17415357Y-15649476D02*
X17424881Y-15659000D01*
X17424881Y-15659000D02*
X17415357Y-15668524D01*
X17415357Y-15668524D02*
X17405834Y-15659000D01*
X17405834Y-15659000D02*
X17415357Y-15649476D01*
X17415357Y-15649476D02*
X17415357Y-15668524D01*
X17548691Y-15468524D02*
X17567738Y-15468524D01*
X17567738Y-15468524D02*
X17586786Y-15478048D01*
X17586786Y-15478048D02*
X17596310Y-15487571D01*
X17596310Y-15487571D02*
X17605834Y-15506619D01*
X17605834Y-15506619D02*
X17615357Y-15544714D01*
X17615357Y-15544714D02*
X17615357Y-15592333D01*
X17615357Y-15592333D02*
X17605834Y-15630428D01*
X17605834Y-15630428D02*
X17596310Y-15649476D01*
X17596310Y-15649476D02*
X17586786Y-15659000D01*
X17586786Y-15659000D02*
X17567738Y-15668524D01*
X17567738Y-15668524D02*
X17548691Y-15668524D01*
X17548691Y-15668524D02*
X17529643Y-15659000D01*
X17529643Y-15659000D02*
X17520119Y-15649476D01*
X17520119Y-15649476D02*
X17510595Y-15630428D01*
X17510595Y-15630428D02*
X17501072Y-15592333D01*
X17501072Y-15592333D02*
X17501072Y-15544714D01*
X17501072Y-15544714D02*
X17510595Y-15506619D01*
X17510595Y-15506619D02*
X17520119Y-15487571D01*
X17520119Y-15487571D02*
X17529643Y-15478048D01*
X17529643Y-15478048D02*
X17548691Y-15468524D01*
X17691548Y-15487571D02*
X17701072Y-15478048D01*
X17701072Y-15478048D02*
X17720119Y-15468524D01*
X17720119Y-15468524D02*
X17767738Y-15468524D01*
X17767738Y-15468524D02*
X17786786Y-15478048D01*
X17786786Y-15478048D02*
X17796310Y-15487571D01*
X17796310Y-15487571D02*
X17805834Y-15506619D01*
X17805834Y-15506619D02*
X17805834Y-15525667D01*
X17805834Y-15525667D02*
X17796310Y-15554238D01*
X17796310Y-15554238D02*
X17682024Y-15668524D01*
X17682024Y-15668524D02*
X17805834Y-15668524D01*
X17872500Y-15468524D02*
X17996310Y-15468524D01*
X17996310Y-15468524D02*
X17929643Y-15544714D01*
X17929643Y-15544714D02*
X17958215Y-15544714D01*
X17958215Y-15544714D02*
X17977262Y-15554238D01*
X17977262Y-15554238D02*
X17986786Y-15563762D01*
X17986786Y-15563762D02*
X17996310Y-15582809D01*
X17996310Y-15582809D02*
X17996310Y-15630428D01*
X17996310Y-15630428D02*
X17986786Y-15649476D01*
X17986786Y-15649476D02*
X17977262Y-15659000D01*
X17977262Y-15659000D02*
X17958215Y-15668524D01*
X17958215Y-15668524D02*
X17901072Y-15668524D01*
X17901072Y-15668524D02*
X17882024Y-15659000D01*
X17882024Y-15659000D02*
X17872500Y-15649476D01*
X18167738Y-15468524D02*
X18129643Y-15468524D01*
X18129643Y-15468524D02*
X18110595Y-15478048D01*
X18110595Y-15478048D02*
X18101072Y-15487571D01*
X18101072Y-15487571D02*
X18082024Y-15516143D01*
X18082024Y-15516143D02*
X18072500Y-15554238D01*
X18072500Y-15554238D02*
X18072500Y-15630428D01*
X18072500Y-15630428D02*
X18082024Y-15649476D01*
X18082024Y-15649476D02*
X18091548Y-15659000D01*
X18091548Y-15659000D02*
X18110595Y-15668524D01*
X18110595Y-15668524D02*
X18148691Y-15668524D01*
X18148691Y-15668524D02*
X18167738Y-15659000D01*
X18167738Y-15659000D02*
X18177262Y-15649476D01*
X18177262Y-15649476D02*
X18186786Y-15630428D01*
X18186786Y-15630428D02*
X18186786Y-15582809D01*
X18186786Y-15582809D02*
X18177262Y-15563762D01*
X18177262Y-15563762D02*
X18167738Y-15554238D01*
X18167738Y-15554238D02*
X18148691Y-15544714D01*
X18148691Y-15544714D02*
X18110595Y-15544714D01*
X18110595Y-15544714D02*
X18091548Y-15554238D01*
X18091548Y-15554238D02*
X18082024Y-15563762D01*
X18082024Y-15563762D02*
X18072500Y-15582809D01*
X18262976Y-15468524D02*
X18262976Y-15506619D01*
X18339167Y-15468524D02*
X18339167Y-15506619D01*
X18634405Y-15744714D02*
X18624881Y-15735190D01*
X18624881Y-15735190D02*
X18605834Y-15706619D01*
X18605834Y-15706619D02*
X18596310Y-15687571D01*
X18596310Y-15687571D02*
X18586786Y-15659000D01*
X18586786Y-15659000D02*
X18577262Y-15611381D01*
X18577262Y-15611381D02*
X18577262Y-15573286D01*
X18577262Y-15573286D02*
X18586786Y-15525667D01*
X18586786Y-15525667D02*
X18596310Y-15497095D01*
X18596310Y-15497095D02*
X18605834Y-15478048D01*
X18605834Y-15478048D02*
X18624881Y-15449476D01*
X18624881Y-15449476D02*
X18634405Y-15439952D01*
X18748691Y-15468524D02*
X18767738Y-15468524D01*
X18767738Y-15468524D02*
X18786786Y-15478048D01*
X18786786Y-15478048D02*
X18796310Y-15487571D01*
X18796310Y-15487571D02*
X18805834Y-15506619D01*
X18805834Y-15506619D02*
X18815357Y-15544714D01*
X18815357Y-15544714D02*
X18815357Y-15592333D01*
X18815357Y-15592333D02*
X18805834Y-15630428D01*
X18805834Y-15630428D02*
X18796310Y-15649476D01*
X18796310Y-15649476D02*
X18786786Y-15659000D01*
X18786786Y-15659000D02*
X18767738Y-15668524D01*
X18767738Y-15668524D02*
X18748691Y-15668524D01*
X18748691Y-15668524D02*
X18729643Y-15659000D01*
X18729643Y-15659000D02*
X18720119Y-15649476D01*
X18720119Y-15649476D02*
X18710596Y-15630428D01*
X18710596Y-15630428D02*
X18701072Y-15592333D01*
X18701072Y-15592333D02*
X18701072Y-15544714D01*
X18701072Y-15544714D02*
X18710596Y-15506619D01*
X18710596Y-15506619D02*
X18720119Y-15487571D01*
X18720119Y-15487571D02*
X18729643Y-15478048D01*
X18729643Y-15478048D02*
X18748691Y-15468524D01*
X19053453Y-15668524D02*
X19053453Y-15468524D01*
X19139167Y-15668524D02*
X19139167Y-15563762D01*
X19139167Y-15563762D02*
X19129643Y-15544714D01*
X19129643Y-15544714D02*
X19110596Y-15535190D01*
X19110596Y-15535190D02*
X19082024Y-15535190D01*
X19082024Y-15535190D02*
X19062977Y-15544714D01*
X19062977Y-15544714D02*
X19053453Y-15554238D01*
X19262977Y-15668524D02*
X19243929Y-15659000D01*
X19243929Y-15659000D02*
X19234405Y-15649476D01*
X19234405Y-15649476D02*
X19224881Y-15630428D01*
X19224881Y-15630428D02*
X19224881Y-15573286D01*
X19224881Y-15573286D02*
X19234405Y-15554238D01*
X19234405Y-15554238D02*
X19243929Y-15544714D01*
X19243929Y-15544714D02*
X19262977Y-15535190D01*
X19262977Y-15535190D02*
X19291548Y-15535190D01*
X19291548Y-15535190D02*
X19310596Y-15544714D01*
X19310596Y-15544714D02*
X19320119Y-15554238D01*
X19320119Y-15554238D02*
X19329643Y-15573286D01*
X19329643Y-15573286D02*
X19329643Y-15630428D01*
X19329643Y-15630428D02*
X19320119Y-15649476D01*
X19320119Y-15649476D02*
X19310596Y-15659000D01*
X19310596Y-15659000D02*
X19291548Y-15668524D01*
X19291548Y-15668524D02*
X19262977Y-15668524D01*
X19443929Y-15668524D02*
X19424881Y-15659000D01*
X19424881Y-15659000D02*
X19415358Y-15639952D01*
X19415358Y-15639952D02*
X19415358Y-15468524D01*
X19596310Y-15659000D02*
X19577262Y-15668524D01*
X19577262Y-15668524D02*
X19539167Y-15668524D01*
X19539167Y-15668524D02*
X19520119Y-15659000D01*
X19520119Y-15659000D02*
X19510596Y-15639952D01*
X19510596Y-15639952D02*
X19510596Y-15563762D01*
X19510596Y-15563762D02*
X19520119Y-15544714D01*
X19520119Y-15544714D02*
X19539167Y-15535190D01*
X19539167Y-15535190D02*
X19577262Y-15535190D01*
X19577262Y-15535190D02*
X19596310Y-15544714D01*
X19596310Y-15544714D02*
X19605834Y-15563762D01*
X19605834Y-15563762D02*
X19605834Y-15582809D01*
X19605834Y-15582809D02*
X19510596Y-15601857D01*
X19682024Y-15659000D02*
X19701072Y-15668524D01*
X19701072Y-15668524D02*
X19739167Y-15668524D01*
X19739167Y-15668524D02*
X19758215Y-15659000D01*
X19758215Y-15659000D02*
X19767739Y-15639952D01*
X19767739Y-15639952D02*
X19767739Y-15630428D01*
X19767739Y-15630428D02*
X19758215Y-15611381D01*
X19758215Y-15611381D02*
X19739167Y-15601857D01*
X19739167Y-15601857D02*
X19710596Y-15601857D01*
X19710596Y-15601857D02*
X19691548Y-15592333D01*
X19691548Y-15592333D02*
X19682024Y-15573286D01*
X19682024Y-15573286D02*
X19682024Y-15563762D01*
X19682024Y-15563762D02*
X19691548Y-15544714D01*
X19691548Y-15544714D02*
X19710596Y-15535190D01*
X19710596Y-15535190D02*
X19739167Y-15535190D01*
X19739167Y-15535190D02*
X19758215Y-15544714D01*
X20005834Y-15592333D02*
X20158215Y-15592333D01*
X20082024Y-15668524D02*
X20082024Y-15516143D01*
X20396310Y-15487571D02*
X20405834Y-15478048D01*
X20405834Y-15478048D02*
X20424881Y-15468524D01*
X20424881Y-15468524D02*
X20472501Y-15468524D01*
X20472501Y-15468524D02*
X20491548Y-15478048D01*
X20491548Y-15478048D02*
X20501072Y-15487571D01*
X20501072Y-15487571D02*
X20510596Y-15506619D01*
X20510596Y-15506619D02*
X20510596Y-15525667D01*
X20510596Y-15525667D02*
X20501072Y-15554238D01*
X20501072Y-15554238D02*
X20386786Y-15668524D01*
X20386786Y-15668524D02*
X20510596Y-15668524D01*
X20739167Y-15659000D02*
X20758215Y-15668524D01*
X20758215Y-15668524D02*
X20796310Y-15668524D01*
X20796310Y-15668524D02*
X20815358Y-15659000D01*
X20815358Y-15659000D02*
X20824882Y-15639952D01*
X20824882Y-15639952D02*
X20824882Y-15630428D01*
X20824882Y-15630428D02*
X20815358Y-15611381D01*
X20815358Y-15611381D02*
X20796310Y-15601857D01*
X20796310Y-15601857D02*
X20767739Y-15601857D01*
X20767739Y-15601857D02*
X20748691Y-15592333D01*
X20748691Y-15592333D02*
X20739167Y-15573286D01*
X20739167Y-15573286D02*
X20739167Y-15563762D01*
X20739167Y-15563762D02*
X20748691Y-15544714D01*
X20748691Y-15544714D02*
X20767739Y-15535190D01*
X20767739Y-15535190D02*
X20796310Y-15535190D01*
X20796310Y-15535190D02*
X20815358Y-15544714D01*
X20939167Y-15668524D02*
X20920120Y-15659000D01*
X20920120Y-15659000D02*
X20910596Y-15639952D01*
X20910596Y-15639952D02*
X20910596Y-15468524D01*
X21043929Y-15668524D02*
X21024882Y-15659000D01*
X21024882Y-15659000D02*
X21015358Y-15649476D01*
X21015358Y-15649476D02*
X21005834Y-15630428D01*
X21005834Y-15630428D02*
X21005834Y-15573286D01*
X21005834Y-15573286D02*
X21015358Y-15554238D01*
X21015358Y-15554238D02*
X21024882Y-15544714D01*
X21024882Y-15544714D02*
X21043929Y-15535190D01*
X21043929Y-15535190D02*
X21072501Y-15535190D01*
X21072501Y-15535190D02*
X21091548Y-15544714D01*
X21091548Y-15544714D02*
X21101072Y-15554238D01*
X21101072Y-15554238D02*
X21110596Y-15573286D01*
X21110596Y-15573286D02*
X21110596Y-15630428D01*
X21110596Y-15630428D02*
X21101072Y-15649476D01*
X21101072Y-15649476D02*
X21091548Y-15659000D01*
X21091548Y-15659000D02*
X21072501Y-15668524D01*
X21072501Y-15668524D02*
X21043929Y-15668524D01*
X21167739Y-15535190D02*
X21243929Y-15535190D01*
X21196310Y-15468524D02*
X21196310Y-15639952D01*
X21196310Y-15639952D02*
X21205834Y-15659000D01*
X21205834Y-15659000D02*
X21224882Y-15668524D01*
X21224882Y-15668524D02*
X21243929Y-15668524D01*
X21301072Y-15659000D02*
X21320120Y-15668524D01*
X21320120Y-15668524D02*
X21358215Y-15668524D01*
X21358215Y-15668524D02*
X21377263Y-15659000D01*
X21377263Y-15659000D02*
X21386786Y-15639952D01*
X21386786Y-15639952D02*
X21386786Y-15630428D01*
X21386786Y-15630428D02*
X21377263Y-15611381D01*
X21377263Y-15611381D02*
X21358215Y-15601857D01*
X21358215Y-15601857D02*
X21329643Y-15601857D01*
X21329643Y-15601857D02*
X21310596Y-15592333D01*
X21310596Y-15592333D02*
X21301072Y-15573286D01*
X21301072Y-15573286D02*
X21301072Y-15563762D01*
X21301072Y-15563762D02*
X21310596Y-15544714D01*
X21310596Y-15544714D02*
X21329643Y-15535190D01*
X21329643Y-15535190D02*
X21358215Y-15535190D01*
X21358215Y-15535190D02*
X21377263Y-15544714D01*
X21453453Y-15744714D02*
X21462977Y-15735190D01*
X21462977Y-15735190D02*
X21482024Y-15706619D01*
X21482024Y-15706619D02*
X21491548Y-15687571D01*
X21491548Y-15687571D02*
X21501072Y-15659000D01*
X21501072Y-15659000D02*
X21510596Y-15611381D01*
X21510596Y-15611381D02*
X21510596Y-15573286D01*
X21510596Y-15573286D02*
X21501072Y-15525667D01*
X21501072Y-15525667D02*
X21491548Y-15497095D01*
X21491548Y-15497095D02*
X21482024Y-15478048D01*
X21482024Y-15478048D02*
X21462977Y-15449476D01*
X21462977Y-15449476D02*
X21453453Y-15439952D01*
D14*
X15061517Y-15866517D02*
X15061517Y-15813483D01*
X15008483Y-15813483D01*
X15008483Y-15866517D01*
X15061517Y-15866517D01*
D10*
X15358214Y-15732524D02*
X15377262Y-15732524D01*
X15377262Y-15732524D02*
X15396309Y-15742048D01*
X15396309Y-15742048D02*
X15405833Y-15751571D01*
X15405833Y-15751571D02*
X15415357Y-15770619D01*
X15415357Y-15770619D02*
X15424881Y-15808714D01*
X15424881Y-15808714D02*
X15424881Y-15856333D01*
X15424881Y-15856333D02*
X15415357Y-15894428D01*
X15415357Y-15894428D02*
X15405833Y-15913476D01*
X15405833Y-15913476D02*
X15396309Y-15923000D01*
X15396309Y-15923000D02*
X15377262Y-15932524D01*
X15377262Y-15932524D02*
X15358214Y-15932524D01*
X15358214Y-15932524D02*
X15339167Y-15923000D01*
X15339167Y-15923000D02*
X15329643Y-15913476D01*
X15329643Y-15913476D02*
X15320119Y-15894428D01*
X15320119Y-15894428D02*
X15310595Y-15856333D01*
X15310595Y-15856333D02*
X15310595Y-15808714D01*
X15310595Y-15808714D02*
X15320119Y-15770619D01*
X15320119Y-15770619D02*
X15329643Y-15751571D01*
X15329643Y-15751571D02*
X15339167Y-15742048D01*
X15339167Y-15742048D02*
X15358214Y-15732524D01*
X15510595Y-15913476D02*
X15520119Y-15923000D01*
X15520119Y-15923000D02*
X15510595Y-15932524D01*
X15510595Y-15932524D02*
X15501071Y-15923000D01*
X15501071Y-15923000D02*
X15510595Y-15913476D01*
X15510595Y-15913476D02*
X15510595Y-15932524D01*
X15586786Y-15732524D02*
X15720119Y-15732524D01*
X15720119Y-15732524D02*
X15634405Y-15932524D01*
X15891548Y-15732524D02*
X15796309Y-15732524D01*
X15796309Y-15732524D02*
X15786786Y-15827762D01*
X15786786Y-15827762D02*
X15796309Y-15818238D01*
X15796309Y-15818238D02*
X15815357Y-15808714D01*
X15815357Y-15808714D02*
X15862976Y-15808714D01*
X15862976Y-15808714D02*
X15882024Y-15818238D01*
X15882024Y-15818238D02*
X15891548Y-15827762D01*
X15891548Y-15827762D02*
X15901071Y-15846809D01*
X15901071Y-15846809D02*
X15901071Y-15894428D01*
X15901071Y-15894428D02*
X15891548Y-15913476D01*
X15891548Y-15913476D02*
X15882024Y-15923000D01*
X15882024Y-15923000D02*
X15862976Y-15932524D01*
X15862976Y-15932524D02*
X15815357Y-15932524D01*
X15815357Y-15932524D02*
X15796309Y-15923000D01*
X15796309Y-15923000D02*
X15786786Y-15913476D01*
X16024881Y-15732524D02*
X16043929Y-15732524D01*
X16043929Y-15732524D02*
X16062976Y-15742048D01*
X16062976Y-15742048D02*
X16072500Y-15751571D01*
X16072500Y-15751571D02*
X16082024Y-15770619D01*
X16082024Y-15770619D02*
X16091548Y-15808714D01*
X16091548Y-15808714D02*
X16091548Y-15856333D01*
X16091548Y-15856333D02*
X16082024Y-15894428D01*
X16082024Y-15894428D02*
X16072500Y-15913476D01*
X16072500Y-15913476D02*
X16062976Y-15923000D01*
X16062976Y-15923000D02*
X16043929Y-15932524D01*
X16043929Y-15932524D02*
X16024881Y-15932524D01*
X16024881Y-15932524D02*
X16005833Y-15923000D01*
X16005833Y-15923000D02*
X15996309Y-15913476D01*
X15996309Y-15913476D02*
X15986786Y-15894428D01*
X15986786Y-15894428D02*
X15977262Y-15856333D01*
X15977262Y-15856333D02*
X15977262Y-15808714D01*
X15977262Y-15808714D02*
X15986786Y-15770619D01*
X15986786Y-15770619D02*
X15996309Y-15751571D01*
X15996309Y-15751571D02*
X16005833Y-15742048D01*
X16005833Y-15742048D02*
X16024881Y-15732524D01*
X16177262Y-15932524D02*
X16177262Y-15799190D01*
X16177262Y-15818238D02*
X16186786Y-15808714D01*
X16186786Y-15808714D02*
X16205833Y-15799190D01*
X16205833Y-15799190D02*
X16234405Y-15799190D01*
X16234405Y-15799190D02*
X16253452Y-15808714D01*
X16253452Y-15808714D02*
X16262976Y-15827762D01*
X16262976Y-15827762D02*
X16262976Y-15932524D01*
X16262976Y-15827762D02*
X16272500Y-15808714D01*
X16272500Y-15808714D02*
X16291548Y-15799190D01*
X16291548Y-15799190D02*
X16320119Y-15799190D01*
X16320119Y-15799190D02*
X16339167Y-15808714D01*
X16339167Y-15808714D02*
X16348690Y-15827762D01*
X16348690Y-15827762D02*
X16348690Y-15932524D01*
X16443929Y-15932524D02*
X16443929Y-15799190D01*
X16443929Y-15818238D02*
X16453452Y-15808714D01*
X16453452Y-15808714D02*
X16472500Y-15799190D01*
X16472500Y-15799190D02*
X16501071Y-15799190D01*
X16501071Y-15799190D02*
X16520119Y-15808714D01*
X16520119Y-15808714D02*
X16529643Y-15827762D01*
X16529643Y-15827762D02*
X16529643Y-15932524D01*
X16529643Y-15827762D02*
X16539167Y-15808714D01*
X16539167Y-15808714D02*
X16558214Y-15799190D01*
X16558214Y-15799190D02*
X16586786Y-15799190D01*
X16586786Y-15799190D02*
X16605833Y-15808714D01*
X16605833Y-15808714D02*
X16615357Y-15827762D01*
X16615357Y-15827762D02*
X16615357Y-15932524D01*
X17005833Y-15723000D02*
X16834405Y-15980143D01*
X17262976Y-15732524D02*
X17282024Y-15732524D01*
X17282024Y-15732524D02*
X17301072Y-15742048D01*
X17301072Y-15742048D02*
X17310595Y-15751571D01*
X17310595Y-15751571D02*
X17320119Y-15770619D01*
X17320119Y-15770619D02*
X17329643Y-15808714D01*
X17329643Y-15808714D02*
X17329643Y-15856333D01*
X17329643Y-15856333D02*
X17320119Y-15894428D01*
X17320119Y-15894428D02*
X17310595Y-15913476D01*
X17310595Y-15913476D02*
X17301072Y-15923000D01*
X17301072Y-15923000D02*
X17282024Y-15932524D01*
X17282024Y-15932524D02*
X17262976Y-15932524D01*
X17262976Y-15932524D02*
X17243929Y-15923000D01*
X17243929Y-15923000D02*
X17234405Y-15913476D01*
X17234405Y-15913476D02*
X17224881Y-15894428D01*
X17224881Y-15894428D02*
X17215357Y-15856333D01*
X17215357Y-15856333D02*
X17215357Y-15808714D01*
X17215357Y-15808714D02*
X17224881Y-15770619D01*
X17224881Y-15770619D02*
X17234405Y-15751571D01*
X17234405Y-15751571D02*
X17243929Y-15742048D01*
X17243929Y-15742048D02*
X17262976Y-15732524D01*
X17415357Y-15913476D02*
X17424881Y-15923000D01*
X17424881Y-15923000D02*
X17415357Y-15932524D01*
X17415357Y-15932524D02*
X17405834Y-15923000D01*
X17405834Y-15923000D02*
X17415357Y-15913476D01*
X17415357Y-15913476D02*
X17415357Y-15932524D01*
X17548691Y-15732524D02*
X17567738Y-15732524D01*
X17567738Y-15732524D02*
X17586786Y-15742048D01*
X17586786Y-15742048D02*
X17596310Y-15751571D01*
X17596310Y-15751571D02*
X17605834Y-15770619D01*
X17605834Y-15770619D02*
X17615357Y-15808714D01*
X17615357Y-15808714D02*
X17615357Y-15856333D01*
X17615357Y-15856333D02*
X17605834Y-15894428D01*
X17605834Y-15894428D02*
X17596310Y-15913476D01*
X17596310Y-15913476D02*
X17586786Y-15923000D01*
X17586786Y-15923000D02*
X17567738Y-15932524D01*
X17567738Y-15932524D02*
X17548691Y-15932524D01*
X17548691Y-15932524D02*
X17529643Y-15923000D01*
X17529643Y-15923000D02*
X17520119Y-15913476D01*
X17520119Y-15913476D02*
X17510595Y-15894428D01*
X17510595Y-15894428D02*
X17501072Y-15856333D01*
X17501072Y-15856333D02*
X17501072Y-15808714D01*
X17501072Y-15808714D02*
X17510595Y-15770619D01*
X17510595Y-15770619D02*
X17520119Y-15751571D01*
X17520119Y-15751571D02*
X17529643Y-15742048D01*
X17529643Y-15742048D02*
X17548691Y-15732524D01*
X17691548Y-15751571D02*
X17701072Y-15742048D01*
X17701072Y-15742048D02*
X17720119Y-15732524D01*
X17720119Y-15732524D02*
X17767738Y-15732524D01*
X17767738Y-15732524D02*
X17786786Y-15742048D01*
X17786786Y-15742048D02*
X17796310Y-15751571D01*
X17796310Y-15751571D02*
X17805834Y-15770619D01*
X17805834Y-15770619D02*
X17805834Y-15789667D01*
X17805834Y-15789667D02*
X17796310Y-15818238D01*
X17796310Y-15818238D02*
X17682024Y-15932524D01*
X17682024Y-15932524D02*
X17805834Y-15932524D01*
X17901072Y-15932524D02*
X17939167Y-15932524D01*
X17939167Y-15932524D02*
X17958215Y-15923000D01*
X17958215Y-15923000D02*
X17967738Y-15913476D01*
X17967738Y-15913476D02*
X17986786Y-15884905D01*
X17986786Y-15884905D02*
X17996310Y-15846809D01*
X17996310Y-15846809D02*
X17996310Y-15770619D01*
X17996310Y-15770619D02*
X17986786Y-15751571D01*
X17986786Y-15751571D02*
X17977262Y-15742048D01*
X17977262Y-15742048D02*
X17958215Y-15732524D01*
X17958215Y-15732524D02*
X17920119Y-15732524D01*
X17920119Y-15732524D02*
X17901072Y-15742048D01*
X17901072Y-15742048D02*
X17891548Y-15751571D01*
X17891548Y-15751571D02*
X17882024Y-15770619D01*
X17882024Y-15770619D02*
X17882024Y-15818238D01*
X17882024Y-15818238D02*
X17891548Y-15837286D01*
X17891548Y-15837286D02*
X17901072Y-15846809D01*
X17901072Y-15846809D02*
X17920119Y-15856333D01*
X17920119Y-15856333D02*
X17958215Y-15856333D01*
X17958215Y-15856333D02*
X17977262Y-15846809D01*
X17977262Y-15846809D02*
X17986786Y-15837286D01*
X17986786Y-15837286D02*
X17996310Y-15818238D01*
X18177262Y-15732524D02*
X18082024Y-15732524D01*
X18082024Y-15732524D02*
X18072500Y-15827762D01*
X18072500Y-15827762D02*
X18082024Y-15818238D01*
X18082024Y-15818238D02*
X18101072Y-15808714D01*
X18101072Y-15808714D02*
X18148691Y-15808714D01*
X18148691Y-15808714D02*
X18167738Y-15818238D01*
X18167738Y-15818238D02*
X18177262Y-15827762D01*
X18177262Y-15827762D02*
X18186786Y-15846809D01*
X18186786Y-15846809D02*
X18186786Y-15894428D01*
X18186786Y-15894428D02*
X18177262Y-15913476D01*
X18177262Y-15913476D02*
X18167738Y-15923000D01*
X18167738Y-15923000D02*
X18148691Y-15932524D01*
X18148691Y-15932524D02*
X18101072Y-15932524D01*
X18101072Y-15932524D02*
X18082024Y-15923000D01*
X18082024Y-15923000D02*
X18072500Y-15913476D01*
X18262976Y-15732524D02*
X18262976Y-15770619D01*
X18339167Y-15732524D02*
X18339167Y-15770619D01*
X18634405Y-16008714D02*
X18624881Y-15999190D01*
X18624881Y-15999190D02*
X18605834Y-15970619D01*
X18605834Y-15970619D02*
X18596310Y-15951571D01*
X18596310Y-15951571D02*
X18586786Y-15923000D01*
X18586786Y-15923000D02*
X18577262Y-15875381D01*
X18577262Y-15875381D02*
X18577262Y-15837286D01*
X18577262Y-15837286D02*
X18586786Y-15789667D01*
X18586786Y-15789667D02*
X18596310Y-15761095D01*
X18596310Y-15761095D02*
X18605834Y-15742048D01*
X18605834Y-15742048D02*
X18624881Y-15713476D01*
X18624881Y-15713476D02*
X18634405Y-15703952D01*
X18691548Y-15732524D02*
X18815357Y-15732524D01*
X18815357Y-15732524D02*
X18748691Y-15808714D01*
X18748691Y-15808714D02*
X18777262Y-15808714D01*
X18777262Y-15808714D02*
X18796310Y-15818238D01*
X18796310Y-15818238D02*
X18805834Y-15827762D01*
X18805834Y-15827762D02*
X18815357Y-15846809D01*
X18815357Y-15846809D02*
X18815357Y-15894428D01*
X18815357Y-15894428D02*
X18805834Y-15913476D01*
X18805834Y-15913476D02*
X18796310Y-15923000D01*
X18796310Y-15923000D02*
X18777262Y-15932524D01*
X18777262Y-15932524D02*
X18720119Y-15932524D01*
X18720119Y-15932524D02*
X18701072Y-15923000D01*
X18701072Y-15923000D02*
X18691548Y-15913476D01*
X19053453Y-15932524D02*
X19053453Y-15732524D01*
X19139167Y-15932524D02*
X19139167Y-15827762D01*
X19139167Y-15827762D02*
X19129643Y-15808714D01*
X19129643Y-15808714D02*
X19110596Y-15799190D01*
X19110596Y-15799190D02*
X19082024Y-15799190D01*
X19082024Y-15799190D02*
X19062977Y-15808714D01*
X19062977Y-15808714D02*
X19053453Y-15818238D01*
X19262977Y-15932524D02*
X19243929Y-15923000D01*
X19243929Y-15923000D02*
X19234405Y-15913476D01*
X19234405Y-15913476D02*
X19224881Y-15894428D01*
X19224881Y-15894428D02*
X19224881Y-15837286D01*
X19224881Y-15837286D02*
X19234405Y-15818238D01*
X19234405Y-15818238D02*
X19243929Y-15808714D01*
X19243929Y-15808714D02*
X19262977Y-15799190D01*
X19262977Y-15799190D02*
X19291548Y-15799190D01*
X19291548Y-15799190D02*
X19310596Y-15808714D01*
X19310596Y-15808714D02*
X19320119Y-15818238D01*
X19320119Y-15818238D02*
X19329643Y-15837286D01*
X19329643Y-15837286D02*
X19329643Y-15894428D01*
X19329643Y-15894428D02*
X19320119Y-15913476D01*
X19320119Y-15913476D02*
X19310596Y-15923000D01*
X19310596Y-15923000D02*
X19291548Y-15932524D01*
X19291548Y-15932524D02*
X19262977Y-15932524D01*
X19443929Y-15932524D02*
X19424881Y-15923000D01*
X19424881Y-15923000D02*
X19415358Y-15903952D01*
X19415358Y-15903952D02*
X19415358Y-15732524D01*
X19596310Y-15923000D02*
X19577262Y-15932524D01*
X19577262Y-15932524D02*
X19539167Y-15932524D01*
X19539167Y-15932524D02*
X19520119Y-15923000D01*
X19520119Y-15923000D02*
X19510596Y-15903952D01*
X19510596Y-15903952D02*
X19510596Y-15827762D01*
X19510596Y-15827762D02*
X19520119Y-15808714D01*
X19520119Y-15808714D02*
X19539167Y-15799190D01*
X19539167Y-15799190D02*
X19577262Y-15799190D01*
X19577262Y-15799190D02*
X19596310Y-15808714D01*
X19596310Y-15808714D02*
X19605834Y-15827762D01*
X19605834Y-15827762D02*
X19605834Y-15846809D01*
X19605834Y-15846809D02*
X19510596Y-15865857D01*
X19682024Y-15923000D02*
X19701072Y-15932524D01*
X19701072Y-15932524D02*
X19739167Y-15932524D01*
X19739167Y-15932524D02*
X19758215Y-15923000D01*
X19758215Y-15923000D02*
X19767739Y-15903952D01*
X19767739Y-15903952D02*
X19767739Y-15894428D01*
X19767739Y-15894428D02*
X19758215Y-15875381D01*
X19758215Y-15875381D02*
X19739167Y-15865857D01*
X19739167Y-15865857D02*
X19710596Y-15865857D01*
X19710596Y-15865857D02*
X19691548Y-15856333D01*
X19691548Y-15856333D02*
X19682024Y-15837286D01*
X19682024Y-15837286D02*
X19682024Y-15827762D01*
X19682024Y-15827762D02*
X19691548Y-15808714D01*
X19691548Y-15808714D02*
X19710596Y-15799190D01*
X19710596Y-15799190D02*
X19739167Y-15799190D01*
X19739167Y-15799190D02*
X19758215Y-15808714D01*
X19834405Y-16008714D02*
X19843929Y-15999190D01*
X19843929Y-15999190D02*
X19862977Y-15970619D01*
X19862977Y-15970619D02*
X19872500Y-15951571D01*
X19872500Y-15951571D02*
X19882024Y-15923000D01*
X19882024Y-15923000D02*
X19891548Y-15875381D01*
X19891548Y-15875381D02*
X19891548Y-15837286D01*
X19891548Y-15837286D02*
X19882024Y-15789667D01*
X19882024Y-15789667D02*
X19872500Y-15761095D01*
X19872500Y-15761095D02*
X19862977Y-15742048D01*
X19862977Y-15742048D02*
X19843929Y-15713476D01*
X19843929Y-15713476D02*
X19834405Y-15703952D01*
D15*
X15032500Y-16144000D02*
X15072500Y-16104000D01*
X15032500Y-16064000D01*
X14992500Y-16104000D01*
X15032500Y-16144000D01*
D10*
X15358214Y-15996524D02*
X15377262Y-15996524D01*
X15377262Y-15996524D02*
X15396309Y-16006048D01*
X15396309Y-16006048D02*
X15405833Y-16015571D01*
X15405833Y-16015571D02*
X15415357Y-16034619D01*
X15415357Y-16034619D02*
X15424881Y-16072714D01*
X15424881Y-16072714D02*
X15424881Y-16120333D01*
X15424881Y-16120333D02*
X15415357Y-16158428D01*
X15415357Y-16158428D02*
X15405833Y-16177476D01*
X15405833Y-16177476D02*
X15396309Y-16187000D01*
X15396309Y-16187000D02*
X15377262Y-16196524D01*
X15377262Y-16196524D02*
X15358214Y-16196524D01*
X15358214Y-16196524D02*
X15339167Y-16187000D01*
X15339167Y-16187000D02*
X15329643Y-16177476D01*
X15329643Y-16177476D02*
X15320119Y-16158428D01*
X15320119Y-16158428D02*
X15310595Y-16120333D01*
X15310595Y-16120333D02*
X15310595Y-16072714D01*
X15310595Y-16072714D02*
X15320119Y-16034619D01*
X15320119Y-16034619D02*
X15329643Y-16015571D01*
X15329643Y-16015571D02*
X15339167Y-16006048D01*
X15339167Y-16006048D02*
X15358214Y-15996524D01*
X15510595Y-16177476D02*
X15520119Y-16187000D01*
X15520119Y-16187000D02*
X15510595Y-16196524D01*
X15510595Y-16196524D02*
X15501071Y-16187000D01*
X15501071Y-16187000D02*
X15510595Y-16177476D01*
X15510595Y-16177476D02*
X15510595Y-16196524D01*
X15634405Y-16082238D02*
X15615357Y-16072714D01*
X15615357Y-16072714D02*
X15605833Y-16063190D01*
X15605833Y-16063190D02*
X15596309Y-16044143D01*
X15596309Y-16044143D02*
X15596309Y-16034619D01*
X15596309Y-16034619D02*
X15605833Y-16015571D01*
X15605833Y-16015571D02*
X15615357Y-16006048D01*
X15615357Y-16006048D02*
X15634405Y-15996524D01*
X15634405Y-15996524D02*
X15672500Y-15996524D01*
X15672500Y-15996524D02*
X15691548Y-16006048D01*
X15691548Y-16006048D02*
X15701071Y-16015571D01*
X15701071Y-16015571D02*
X15710595Y-16034619D01*
X15710595Y-16034619D02*
X15710595Y-16044143D01*
X15710595Y-16044143D02*
X15701071Y-16063190D01*
X15701071Y-16063190D02*
X15691548Y-16072714D01*
X15691548Y-16072714D02*
X15672500Y-16082238D01*
X15672500Y-16082238D02*
X15634405Y-16082238D01*
X15634405Y-16082238D02*
X15615357Y-16091762D01*
X15615357Y-16091762D02*
X15605833Y-16101286D01*
X15605833Y-16101286D02*
X15596309Y-16120333D01*
X15596309Y-16120333D02*
X15596309Y-16158428D01*
X15596309Y-16158428D02*
X15605833Y-16177476D01*
X15605833Y-16177476D02*
X15615357Y-16187000D01*
X15615357Y-16187000D02*
X15634405Y-16196524D01*
X15634405Y-16196524D02*
X15672500Y-16196524D01*
X15672500Y-16196524D02*
X15691548Y-16187000D01*
X15691548Y-16187000D02*
X15701071Y-16177476D01*
X15701071Y-16177476D02*
X15710595Y-16158428D01*
X15710595Y-16158428D02*
X15710595Y-16120333D01*
X15710595Y-16120333D02*
X15701071Y-16101286D01*
X15701071Y-16101286D02*
X15691548Y-16091762D01*
X15691548Y-16091762D02*
X15672500Y-16082238D01*
X15834405Y-15996524D02*
X15853452Y-15996524D01*
X15853452Y-15996524D02*
X15872500Y-16006048D01*
X15872500Y-16006048D02*
X15882024Y-16015571D01*
X15882024Y-16015571D02*
X15891548Y-16034619D01*
X15891548Y-16034619D02*
X15901071Y-16072714D01*
X15901071Y-16072714D02*
X15901071Y-16120333D01*
X15901071Y-16120333D02*
X15891548Y-16158428D01*
X15891548Y-16158428D02*
X15882024Y-16177476D01*
X15882024Y-16177476D02*
X15872500Y-16187000D01*
X15872500Y-16187000D02*
X15853452Y-16196524D01*
X15853452Y-16196524D02*
X15834405Y-16196524D01*
X15834405Y-16196524D02*
X15815357Y-16187000D01*
X15815357Y-16187000D02*
X15805833Y-16177476D01*
X15805833Y-16177476D02*
X15796309Y-16158428D01*
X15796309Y-16158428D02*
X15786786Y-16120333D01*
X15786786Y-16120333D02*
X15786786Y-16072714D01*
X15786786Y-16072714D02*
X15796309Y-16034619D01*
X15796309Y-16034619D02*
X15805833Y-16015571D01*
X15805833Y-16015571D02*
X15815357Y-16006048D01*
X15815357Y-16006048D02*
X15834405Y-15996524D01*
X16024881Y-15996524D02*
X16043929Y-15996524D01*
X16043929Y-15996524D02*
X16062976Y-16006048D01*
X16062976Y-16006048D02*
X16072500Y-16015571D01*
X16072500Y-16015571D02*
X16082024Y-16034619D01*
X16082024Y-16034619D02*
X16091548Y-16072714D01*
X16091548Y-16072714D02*
X16091548Y-16120333D01*
X16091548Y-16120333D02*
X16082024Y-16158428D01*
X16082024Y-16158428D02*
X16072500Y-16177476D01*
X16072500Y-16177476D02*
X16062976Y-16187000D01*
X16062976Y-16187000D02*
X16043929Y-16196524D01*
X16043929Y-16196524D02*
X16024881Y-16196524D01*
X16024881Y-16196524D02*
X16005833Y-16187000D01*
X16005833Y-16187000D02*
X15996309Y-16177476D01*
X15996309Y-16177476D02*
X15986786Y-16158428D01*
X15986786Y-16158428D02*
X15977262Y-16120333D01*
X15977262Y-16120333D02*
X15977262Y-16072714D01*
X15977262Y-16072714D02*
X15986786Y-16034619D01*
X15986786Y-16034619D02*
X15996309Y-16015571D01*
X15996309Y-16015571D02*
X16005833Y-16006048D01*
X16005833Y-16006048D02*
X16024881Y-15996524D01*
X16177262Y-16196524D02*
X16177262Y-16063190D01*
X16177262Y-16082238D02*
X16186786Y-16072714D01*
X16186786Y-16072714D02*
X16205833Y-16063190D01*
X16205833Y-16063190D02*
X16234405Y-16063190D01*
X16234405Y-16063190D02*
X16253452Y-16072714D01*
X16253452Y-16072714D02*
X16262976Y-16091762D01*
X16262976Y-16091762D02*
X16262976Y-16196524D01*
X16262976Y-16091762D02*
X16272500Y-16072714D01*
X16272500Y-16072714D02*
X16291548Y-16063190D01*
X16291548Y-16063190D02*
X16320119Y-16063190D01*
X16320119Y-16063190D02*
X16339167Y-16072714D01*
X16339167Y-16072714D02*
X16348690Y-16091762D01*
X16348690Y-16091762D02*
X16348690Y-16196524D01*
X16443929Y-16196524D02*
X16443929Y-16063190D01*
X16443929Y-16082238D02*
X16453452Y-16072714D01*
X16453452Y-16072714D02*
X16472500Y-16063190D01*
X16472500Y-16063190D02*
X16501071Y-16063190D01*
X16501071Y-16063190D02*
X16520119Y-16072714D01*
X16520119Y-16072714D02*
X16529643Y-16091762D01*
X16529643Y-16091762D02*
X16529643Y-16196524D01*
X16529643Y-16091762D02*
X16539167Y-16072714D01*
X16539167Y-16072714D02*
X16558214Y-16063190D01*
X16558214Y-16063190D02*
X16586786Y-16063190D01*
X16586786Y-16063190D02*
X16605833Y-16072714D01*
X16605833Y-16072714D02*
X16615357Y-16091762D01*
X16615357Y-16091762D02*
X16615357Y-16196524D01*
X17005833Y-15987000D02*
X16834405Y-16244143D01*
X17262976Y-15996524D02*
X17282024Y-15996524D01*
X17282024Y-15996524D02*
X17301072Y-16006048D01*
X17301072Y-16006048D02*
X17310595Y-16015571D01*
X17310595Y-16015571D02*
X17320119Y-16034619D01*
X17320119Y-16034619D02*
X17329643Y-16072714D01*
X17329643Y-16072714D02*
X17329643Y-16120333D01*
X17329643Y-16120333D02*
X17320119Y-16158428D01*
X17320119Y-16158428D02*
X17310595Y-16177476D01*
X17310595Y-16177476D02*
X17301072Y-16187000D01*
X17301072Y-16187000D02*
X17282024Y-16196524D01*
X17282024Y-16196524D02*
X17262976Y-16196524D01*
X17262976Y-16196524D02*
X17243929Y-16187000D01*
X17243929Y-16187000D02*
X17234405Y-16177476D01*
X17234405Y-16177476D02*
X17224881Y-16158428D01*
X17224881Y-16158428D02*
X17215357Y-16120333D01*
X17215357Y-16120333D02*
X17215357Y-16072714D01*
X17215357Y-16072714D02*
X17224881Y-16034619D01*
X17224881Y-16034619D02*
X17234405Y-16015571D01*
X17234405Y-16015571D02*
X17243929Y-16006048D01*
X17243929Y-16006048D02*
X17262976Y-15996524D01*
X17415357Y-16177476D02*
X17424881Y-16187000D01*
X17424881Y-16187000D02*
X17415357Y-16196524D01*
X17415357Y-16196524D02*
X17405834Y-16187000D01*
X17405834Y-16187000D02*
X17415357Y-16177476D01*
X17415357Y-16177476D02*
X17415357Y-16196524D01*
X17548691Y-15996524D02*
X17567738Y-15996524D01*
X17567738Y-15996524D02*
X17586786Y-16006048D01*
X17586786Y-16006048D02*
X17596310Y-16015571D01*
X17596310Y-16015571D02*
X17605834Y-16034619D01*
X17605834Y-16034619D02*
X17615357Y-16072714D01*
X17615357Y-16072714D02*
X17615357Y-16120333D01*
X17615357Y-16120333D02*
X17605834Y-16158428D01*
X17605834Y-16158428D02*
X17596310Y-16177476D01*
X17596310Y-16177476D02*
X17586786Y-16187000D01*
X17586786Y-16187000D02*
X17567738Y-16196524D01*
X17567738Y-16196524D02*
X17548691Y-16196524D01*
X17548691Y-16196524D02*
X17529643Y-16187000D01*
X17529643Y-16187000D02*
X17520119Y-16177476D01*
X17520119Y-16177476D02*
X17510595Y-16158428D01*
X17510595Y-16158428D02*
X17501072Y-16120333D01*
X17501072Y-16120333D02*
X17501072Y-16072714D01*
X17501072Y-16072714D02*
X17510595Y-16034619D01*
X17510595Y-16034619D02*
X17520119Y-16015571D01*
X17520119Y-16015571D02*
X17529643Y-16006048D01*
X17529643Y-16006048D02*
X17548691Y-15996524D01*
X17682024Y-15996524D02*
X17805834Y-15996524D01*
X17805834Y-15996524D02*
X17739167Y-16072714D01*
X17739167Y-16072714D02*
X17767738Y-16072714D01*
X17767738Y-16072714D02*
X17786786Y-16082238D01*
X17786786Y-16082238D02*
X17796310Y-16091762D01*
X17796310Y-16091762D02*
X17805834Y-16110809D01*
X17805834Y-16110809D02*
X17805834Y-16158428D01*
X17805834Y-16158428D02*
X17796310Y-16177476D01*
X17796310Y-16177476D02*
X17786786Y-16187000D01*
X17786786Y-16187000D02*
X17767738Y-16196524D01*
X17767738Y-16196524D02*
X17710595Y-16196524D01*
X17710595Y-16196524D02*
X17691548Y-16187000D01*
X17691548Y-16187000D02*
X17682024Y-16177476D01*
X17996310Y-16196524D02*
X17882024Y-16196524D01*
X17939167Y-16196524D02*
X17939167Y-15996524D01*
X17939167Y-15996524D02*
X17920119Y-16025095D01*
X17920119Y-16025095D02*
X17901072Y-16044143D01*
X17901072Y-16044143D02*
X17882024Y-16053667D01*
X18177262Y-15996524D02*
X18082024Y-15996524D01*
X18082024Y-15996524D02*
X18072500Y-16091762D01*
X18072500Y-16091762D02*
X18082024Y-16082238D01*
X18082024Y-16082238D02*
X18101072Y-16072714D01*
X18101072Y-16072714D02*
X18148691Y-16072714D01*
X18148691Y-16072714D02*
X18167738Y-16082238D01*
X18167738Y-16082238D02*
X18177262Y-16091762D01*
X18177262Y-16091762D02*
X18186786Y-16110809D01*
X18186786Y-16110809D02*
X18186786Y-16158428D01*
X18186786Y-16158428D02*
X18177262Y-16177476D01*
X18177262Y-16177476D02*
X18167738Y-16187000D01*
X18167738Y-16187000D02*
X18148691Y-16196524D01*
X18148691Y-16196524D02*
X18101072Y-16196524D01*
X18101072Y-16196524D02*
X18082024Y-16187000D01*
X18082024Y-16187000D02*
X18072500Y-16177476D01*
X18262976Y-15996524D02*
X18262976Y-16034619D01*
X18339167Y-15996524D02*
X18339167Y-16034619D01*
X18634405Y-16272714D02*
X18624881Y-16263190D01*
X18624881Y-16263190D02*
X18605834Y-16234619D01*
X18605834Y-16234619D02*
X18596310Y-16215571D01*
X18596310Y-16215571D02*
X18586786Y-16187000D01*
X18586786Y-16187000D02*
X18577262Y-16139381D01*
X18577262Y-16139381D02*
X18577262Y-16101286D01*
X18577262Y-16101286D02*
X18586786Y-16053667D01*
X18586786Y-16053667D02*
X18596310Y-16025095D01*
X18596310Y-16025095D02*
X18605834Y-16006048D01*
X18605834Y-16006048D02*
X18624881Y-15977476D01*
X18624881Y-15977476D02*
X18634405Y-15967952D01*
X18796310Y-16063190D02*
X18796310Y-16196524D01*
X18748691Y-15987000D02*
X18701072Y-16129857D01*
X18701072Y-16129857D02*
X18824881Y-16129857D01*
X18891548Y-16015571D02*
X18901072Y-16006048D01*
X18901072Y-16006048D02*
X18920119Y-15996524D01*
X18920119Y-15996524D02*
X18967738Y-15996524D01*
X18967738Y-15996524D02*
X18986786Y-16006048D01*
X18986786Y-16006048D02*
X18996310Y-16015571D01*
X18996310Y-16015571D02*
X19005834Y-16034619D01*
X19005834Y-16034619D02*
X19005834Y-16053667D01*
X19005834Y-16053667D02*
X18996310Y-16082238D01*
X18996310Y-16082238D02*
X18882024Y-16196524D01*
X18882024Y-16196524D02*
X19005834Y-16196524D01*
X19243929Y-16196524D02*
X19243929Y-15996524D01*
X19329643Y-16196524D02*
X19329643Y-16091762D01*
X19329643Y-16091762D02*
X19320119Y-16072714D01*
X19320119Y-16072714D02*
X19301072Y-16063190D01*
X19301072Y-16063190D02*
X19272500Y-16063190D01*
X19272500Y-16063190D02*
X19253453Y-16072714D01*
X19253453Y-16072714D02*
X19243929Y-16082238D01*
X19453453Y-16196524D02*
X19434405Y-16187000D01*
X19434405Y-16187000D02*
X19424881Y-16177476D01*
X19424881Y-16177476D02*
X19415358Y-16158428D01*
X19415358Y-16158428D02*
X19415358Y-16101286D01*
X19415358Y-16101286D02*
X19424881Y-16082238D01*
X19424881Y-16082238D02*
X19434405Y-16072714D01*
X19434405Y-16072714D02*
X19453453Y-16063190D01*
X19453453Y-16063190D02*
X19482024Y-16063190D01*
X19482024Y-16063190D02*
X19501072Y-16072714D01*
X19501072Y-16072714D02*
X19510596Y-16082238D01*
X19510596Y-16082238D02*
X19520119Y-16101286D01*
X19520119Y-16101286D02*
X19520119Y-16158428D01*
X19520119Y-16158428D02*
X19510596Y-16177476D01*
X19510596Y-16177476D02*
X19501072Y-16187000D01*
X19501072Y-16187000D02*
X19482024Y-16196524D01*
X19482024Y-16196524D02*
X19453453Y-16196524D01*
X19634405Y-16196524D02*
X19615358Y-16187000D01*
X19615358Y-16187000D02*
X19605834Y-16167952D01*
X19605834Y-16167952D02*
X19605834Y-15996524D01*
X19786786Y-16187000D02*
X19767739Y-16196524D01*
X19767739Y-16196524D02*
X19729643Y-16196524D01*
X19729643Y-16196524D02*
X19710596Y-16187000D01*
X19710596Y-16187000D02*
X19701072Y-16167952D01*
X19701072Y-16167952D02*
X19701072Y-16091762D01*
X19701072Y-16091762D02*
X19710596Y-16072714D01*
X19710596Y-16072714D02*
X19729643Y-16063190D01*
X19729643Y-16063190D02*
X19767739Y-16063190D01*
X19767739Y-16063190D02*
X19786786Y-16072714D01*
X19786786Y-16072714D02*
X19796310Y-16091762D01*
X19796310Y-16091762D02*
X19796310Y-16110809D01*
X19796310Y-16110809D02*
X19701072Y-16129857D01*
X19872500Y-16187000D02*
X19891548Y-16196524D01*
X19891548Y-16196524D02*
X19929643Y-16196524D01*
X19929643Y-16196524D02*
X19948691Y-16187000D01*
X19948691Y-16187000D02*
X19958215Y-16167952D01*
X19958215Y-16167952D02*
X19958215Y-16158428D01*
X19958215Y-16158428D02*
X19948691Y-16139381D01*
X19948691Y-16139381D02*
X19929643Y-16129857D01*
X19929643Y-16129857D02*
X19901072Y-16129857D01*
X19901072Y-16129857D02*
X19882024Y-16120333D01*
X19882024Y-16120333D02*
X19872500Y-16101286D01*
X19872500Y-16101286D02*
X19872500Y-16091762D01*
X19872500Y-16091762D02*
X19882024Y-16072714D01*
X19882024Y-16072714D02*
X19901072Y-16063190D01*
X19901072Y-16063190D02*
X19929643Y-16063190D01*
X19929643Y-16063190D02*
X19948691Y-16072714D01*
X20024881Y-16272714D02*
X20034405Y-16263190D01*
X20034405Y-16263190D02*
X20053453Y-16234619D01*
X20053453Y-16234619D02*
X20062977Y-16215571D01*
X20062977Y-16215571D02*
X20072500Y-16187000D01*
X20072500Y-16187000D02*
X20082024Y-16139381D01*
X20082024Y-16139381D02*
X20082024Y-16101286D01*
X20082024Y-16101286D02*
X20072500Y-16053667D01*
X20072500Y-16053667D02*
X20062977Y-16025095D01*
X20062977Y-16025095D02*
X20053453Y-16006048D01*
X20053453Y-16006048D02*
X20034405Y-15977476D01*
X20034405Y-15977476D02*
X20024881Y-15967952D01*
D16*
X14987500Y-16325500D02*
X15072500Y-16410500D01*
X15072500Y-16325500D02*
X14987500Y-16410500D01*
X15072500Y-16368000D02*
G75*
G03*
X15072500Y-16368000I-42500J0D01*
G01*
D10*
X15358214Y-16260524D02*
X15377262Y-16260524D01*
X15377262Y-16260524D02*
X15396309Y-16270048D01*
X15396309Y-16270048D02*
X15405833Y-16279571D01*
X15405833Y-16279571D02*
X15415357Y-16298619D01*
X15415357Y-16298619D02*
X15424881Y-16336714D01*
X15424881Y-16336714D02*
X15424881Y-16384333D01*
X15424881Y-16384333D02*
X15415357Y-16422428D01*
X15415357Y-16422428D02*
X15405833Y-16441476D01*
X15405833Y-16441476D02*
X15396309Y-16451000D01*
X15396309Y-16451000D02*
X15377262Y-16460524D01*
X15377262Y-16460524D02*
X15358214Y-16460524D01*
X15358214Y-16460524D02*
X15339167Y-16451000D01*
X15339167Y-16451000D02*
X15329643Y-16441476D01*
X15329643Y-16441476D02*
X15320119Y-16422428D01*
X15320119Y-16422428D02*
X15310595Y-16384333D01*
X15310595Y-16384333D02*
X15310595Y-16336714D01*
X15310595Y-16336714D02*
X15320119Y-16298619D01*
X15320119Y-16298619D02*
X15329643Y-16279571D01*
X15329643Y-16279571D02*
X15339167Y-16270048D01*
X15339167Y-16270048D02*
X15358214Y-16260524D01*
X15510595Y-16441476D02*
X15520119Y-16451000D01*
X15520119Y-16451000D02*
X15510595Y-16460524D01*
X15510595Y-16460524D02*
X15501071Y-16451000D01*
X15501071Y-16451000D02*
X15510595Y-16441476D01*
X15510595Y-16441476D02*
X15510595Y-16460524D01*
X15634405Y-16346238D02*
X15615357Y-16336714D01*
X15615357Y-16336714D02*
X15605833Y-16327190D01*
X15605833Y-16327190D02*
X15596309Y-16308143D01*
X15596309Y-16308143D02*
X15596309Y-16298619D01*
X15596309Y-16298619D02*
X15605833Y-16279571D01*
X15605833Y-16279571D02*
X15615357Y-16270048D01*
X15615357Y-16270048D02*
X15634405Y-16260524D01*
X15634405Y-16260524D02*
X15672500Y-16260524D01*
X15672500Y-16260524D02*
X15691548Y-16270048D01*
X15691548Y-16270048D02*
X15701071Y-16279571D01*
X15701071Y-16279571D02*
X15710595Y-16298619D01*
X15710595Y-16298619D02*
X15710595Y-16308143D01*
X15710595Y-16308143D02*
X15701071Y-16327190D01*
X15701071Y-16327190D02*
X15691548Y-16336714D01*
X15691548Y-16336714D02*
X15672500Y-16346238D01*
X15672500Y-16346238D02*
X15634405Y-16346238D01*
X15634405Y-16346238D02*
X15615357Y-16355762D01*
X15615357Y-16355762D02*
X15605833Y-16365286D01*
X15605833Y-16365286D02*
X15596309Y-16384333D01*
X15596309Y-16384333D02*
X15596309Y-16422428D01*
X15596309Y-16422428D02*
X15605833Y-16441476D01*
X15605833Y-16441476D02*
X15615357Y-16451000D01*
X15615357Y-16451000D02*
X15634405Y-16460524D01*
X15634405Y-16460524D02*
X15672500Y-16460524D01*
X15672500Y-16460524D02*
X15691548Y-16451000D01*
X15691548Y-16451000D02*
X15701071Y-16441476D01*
X15701071Y-16441476D02*
X15710595Y-16422428D01*
X15710595Y-16422428D02*
X15710595Y-16384333D01*
X15710595Y-16384333D02*
X15701071Y-16365286D01*
X15701071Y-16365286D02*
X15691548Y-16355762D01*
X15691548Y-16355762D02*
X15672500Y-16346238D01*
X15891548Y-16260524D02*
X15796309Y-16260524D01*
X15796309Y-16260524D02*
X15786786Y-16355762D01*
X15786786Y-16355762D02*
X15796309Y-16346238D01*
X15796309Y-16346238D02*
X15815357Y-16336714D01*
X15815357Y-16336714D02*
X15862976Y-16336714D01*
X15862976Y-16336714D02*
X15882024Y-16346238D01*
X15882024Y-16346238D02*
X15891548Y-16355762D01*
X15891548Y-16355762D02*
X15901071Y-16374809D01*
X15901071Y-16374809D02*
X15901071Y-16422428D01*
X15901071Y-16422428D02*
X15891548Y-16441476D01*
X15891548Y-16441476D02*
X15882024Y-16451000D01*
X15882024Y-16451000D02*
X15862976Y-16460524D01*
X15862976Y-16460524D02*
X15815357Y-16460524D01*
X15815357Y-16460524D02*
X15796309Y-16451000D01*
X15796309Y-16451000D02*
X15786786Y-16441476D01*
X16024881Y-16260524D02*
X16043929Y-16260524D01*
X16043929Y-16260524D02*
X16062976Y-16270048D01*
X16062976Y-16270048D02*
X16072500Y-16279571D01*
X16072500Y-16279571D02*
X16082024Y-16298619D01*
X16082024Y-16298619D02*
X16091548Y-16336714D01*
X16091548Y-16336714D02*
X16091548Y-16384333D01*
X16091548Y-16384333D02*
X16082024Y-16422428D01*
X16082024Y-16422428D02*
X16072500Y-16441476D01*
X16072500Y-16441476D02*
X16062976Y-16451000D01*
X16062976Y-16451000D02*
X16043929Y-16460524D01*
X16043929Y-16460524D02*
X16024881Y-16460524D01*
X16024881Y-16460524D02*
X16005833Y-16451000D01*
X16005833Y-16451000D02*
X15996309Y-16441476D01*
X15996309Y-16441476D02*
X15986786Y-16422428D01*
X15986786Y-16422428D02*
X15977262Y-16384333D01*
X15977262Y-16384333D02*
X15977262Y-16336714D01*
X15977262Y-16336714D02*
X15986786Y-16298619D01*
X15986786Y-16298619D02*
X15996309Y-16279571D01*
X15996309Y-16279571D02*
X16005833Y-16270048D01*
X16005833Y-16270048D02*
X16024881Y-16260524D01*
X16177262Y-16460524D02*
X16177262Y-16327190D01*
X16177262Y-16346238D02*
X16186786Y-16336714D01*
X16186786Y-16336714D02*
X16205833Y-16327190D01*
X16205833Y-16327190D02*
X16234405Y-16327190D01*
X16234405Y-16327190D02*
X16253452Y-16336714D01*
X16253452Y-16336714D02*
X16262976Y-16355762D01*
X16262976Y-16355762D02*
X16262976Y-16460524D01*
X16262976Y-16355762D02*
X16272500Y-16336714D01*
X16272500Y-16336714D02*
X16291548Y-16327190D01*
X16291548Y-16327190D02*
X16320119Y-16327190D01*
X16320119Y-16327190D02*
X16339167Y-16336714D01*
X16339167Y-16336714D02*
X16348690Y-16355762D01*
X16348690Y-16355762D02*
X16348690Y-16460524D01*
X16443929Y-16460524D02*
X16443929Y-16327190D01*
X16443929Y-16346238D02*
X16453452Y-16336714D01*
X16453452Y-16336714D02*
X16472500Y-16327190D01*
X16472500Y-16327190D02*
X16501071Y-16327190D01*
X16501071Y-16327190D02*
X16520119Y-16336714D01*
X16520119Y-16336714D02*
X16529643Y-16355762D01*
X16529643Y-16355762D02*
X16529643Y-16460524D01*
X16529643Y-16355762D02*
X16539167Y-16336714D01*
X16539167Y-16336714D02*
X16558214Y-16327190D01*
X16558214Y-16327190D02*
X16586786Y-16327190D01*
X16586786Y-16327190D02*
X16605833Y-16336714D01*
X16605833Y-16336714D02*
X16615357Y-16355762D01*
X16615357Y-16355762D02*
X16615357Y-16460524D01*
X17005833Y-16251000D02*
X16834405Y-16508143D01*
X17262976Y-16260524D02*
X17282024Y-16260524D01*
X17282024Y-16260524D02*
X17301072Y-16270048D01*
X17301072Y-16270048D02*
X17310595Y-16279571D01*
X17310595Y-16279571D02*
X17320119Y-16298619D01*
X17320119Y-16298619D02*
X17329643Y-16336714D01*
X17329643Y-16336714D02*
X17329643Y-16384333D01*
X17329643Y-16384333D02*
X17320119Y-16422428D01*
X17320119Y-16422428D02*
X17310595Y-16441476D01*
X17310595Y-16441476D02*
X17301072Y-16451000D01*
X17301072Y-16451000D02*
X17282024Y-16460524D01*
X17282024Y-16460524D02*
X17262976Y-16460524D01*
X17262976Y-16460524D02*
X17243929Y-16451000D01*
X17243929Y-16451000D02*
X17234405Y-16441476D01*
X17234405Y-16441476D02*
X17224881Y-16422428D01*
X17224881Y-16422428D02*
X17215357Y-16384333D01*
X17215357Y-16384333D02*
X17215357Y-16336714D01*
X17215357Y-16336714D02*
X17224881Y-16298619D01*
X17224881Y-16298619D02*
X17234405Y-16279571D01*
X17234405Y-16279571D02*
X17243929Y-16270048D01*
X17243929Y-16270048D02*
X17262976Y-16260524D01*
X17415357Y-16441476D02*
X17424881Y-16451000D01*
X17424881Y-16451000D02*
X17415357Y-16460524D01*
X17415357Y-16460524D02*
X17405834Y-16451000D01*
X17405834Y-16451000D02*
X17415357Y-16441476D01*
X17415357Y-16441476D02*
X17415357Y-16460524D01*
X17548691Y-16260524D02*
X17567738Y-16260524D01*
X17567738Y-16260524D02*
X17586786Y-16270048D01*
X17586786Y-16270048D02*
X17596310Y-16279571D01*
X17596310Y-16279571D02*
X17605834Y-16298619D01*
X17605834Y-16298619D02*
X17615357Y-16336714D01*
X17615357Y-16336714D02*
X17615357Y-16384333D01*
X17615357Y-16384333D02*
X17605834Y-16422428D01*
X17605834Y-16422428D02*
X17596310Y-16441476D01*
X17596310Y-16441476D02*
X17586786Y-16451000D01*
X17586786Y-16451000D02*
X17567738Y-16460524D01*
X17567738Y-16460524D02*
X17548691Y-16460524D01*
X17548691Y-16460524D02*
X17529643Y-16451000D01*
X17529643Y-16451000D02*
X17520119Y-16441476D01*
X17520119Y-16441476D02*
X17510595Y-16422428D01*
X17510595Y-16422428D02*
X17501072Y-16384333D01*
X17501072Y-16384333D02*
X17501072Y-16336714D01*
X17501072Y-16336714D02*
X17510595Y-16298619D01*
X17510595Y-16298619D02*
X17520119Y-16279571D01*
X17520119Y-16279571D02*
X17529643Y-16270048D01*
X17529643Y-16270048D02*
X17548691Y-16260524D01*
X17682024Y-16260524D02*
X17805834Y-16260524D01*
X17805834Y-16260524D02*
X17739167Y-16336714D01*
X17739167Y-16336714D02*
X17767738Y-16336714D01*
X17767738Y-16336714D02*
X17786786Y-16346238D01*
X17786786Y-16346238D02*
X17796310Y-16355762D01*
X17796310Y-16355762D02*
X17805834Y-16374809D01*
X17805834Y-16374809D02*
X17805834Y-16422428D01*
X17805834Y-16422428D02*
X17796310Y-16441476D01*
X17796310Y-16441476D02*
X17786786Y-16451000D01*
X17786786Y-16451000D02*
X17767738Y-16460524D01*
X17767738Y-16460524D02*
X17710595Y-16460524D01*
X17710595Y-16460524D02*
X17691548Y-16451000D01*
X17691548Y-16451000D02*
X17682024Y-16441476D01*
X17872500Y-16260524D02*
X17996310Y-16260524D01*
X17996310Y-16260524D02*
X17929643Y-16336714D01*
X17929643Y-16336714D02*
X17958215Y-16336714D01*
X17958215Y-16336714D02*
X17977262Y-16346238D01*
X17977262Y-16346238D02*
X17986786Y-16355762D01*
X17986786Y-16355762D02*
X17996310Y-16374809D01*
X17996310Y-16374809D02*
X17996310Y-16422428D01*
X17996310Y-16422428D02*
X17986786Y-16441476D01*
X17986786Y-16441476D02*
X17977262Y-16451000D01*
X17977262Y-16451000D02*
X17958215Y-16460524D01*
X17958215Y-16460524D02*
X17901072Y-16460524D01*
X17901072Y-16460524D02*
X17882024Y-16451000D01*
X17882024Y-16451000D02*
X17872500Y-16441476D01*
X18177262Y-16260524D02*
X18082024Y-16260524D01*
X18082024Y-16260524D02*
X18072500Y-16355762D01*
X18072500Y-16355762D02*
X18082024Y-16346238D01*
X18082024Y-16346238D02*
X18101072Y-16336714D01*
X18101072Y-16336714D02*
X18148691Y-16336714D01*
X18148691Y-16336714D02*
X18167738Y-16346238D01*
X18167738Y-16346238D02*
X18177262Y-16355762D01*
X18177262Y-16355762D02*
X18186786Y-16374809D01*
X18186786Y-16374809D02*
X18186786Y-16422428D01*
X18186786Y-16422428D02*
X18177262Y-16441476D01*
X18177262Y-16441476D02*
X18167738Y-16451000D01*
X18167738Y-16451000D02*
X18148691Y-16460524D01*
X18148691Y-16460524D02*
X18101072Y-16460524D01*
X18101072Y-16460524D02*
X18082024Y-16451000D01*
X18082024Y-16451000D02*
X18072500Y-16441476D01*
X18262976Y-16260524D02*
X18262976Y-16298619D01*
X18339167Y-16260524D02*
X18339167Y-16298619D01*
X18634405Y-16536714D02*
X18624881Y-16527190D01*
X18624881Y-16527190D02*
X18605834Y-16498619D01*
X18605834Y-16498619D02*
X18596310Y-16479571D01*
X18596310Y-16479571D02*
X18586786Y-16451000D01*
X18586786Y-16451000D02*
X18577262Y-16403381D01*
X18577262Y-16403381D02*
X18577262Y-16365286D01*
X18577262Y-16365286D02*
X18586786Y-16317667D01*
X18586786Y-16317667D02*
X18596310Y-16289095D01*
X18596310Y-16289095D02*
X18605834Y-16270048D01*
X18605834Y-16270048D02*
X18624881Y-16241476D01*
X18624881Y-16241476D02*
X18634405Y-16231952D01*
X18701072Y-16279571D02*
X18710596Y-16270048D01*
X18710596Y-16270048D02*
X18729643Y-16260524D01*
X18729643Y-16260524D02*
X18777262Y-16260524D01*
X18777262Y-16260524D02*
X18796310Y-16270048D01*
X18796310Y-16270048D02*
X18805834Y-16279571D01*
X18805834Y-16279571D02*
X18815357Y-16298619D01*
X18815357Y-16298619D02*
X18815357Y-16317667D01*
X18815357Y-16317667D02*
X18805834Y-16346238D01*
X18805834Y-16346238D02*
X18691548Y-16460524D01*
X18691548Y-16460524D02*
X18815357Y-16460524D01*
X19053453Y-16460524D02*
X19053453Y-16260524D01*
X19139167Y-16460524D02*
X19139167Y-16355762D01*
X19139167Y-16355762D02*
X19129643Y-16336714D01*
X19129643Y-16336714D02*
X19110596Y-16327190D01*
X19110596Y-16327190D02*
X19082024Y-16327190D01*
X19082024Y-16327190D02*
X19062977Y-16336714D01*
X19062977Y-16336714D02*
X19053453Y-16346238D01*
X19262977Y-16460524D02*
X19243929Y-16451000D01*
X19243929Y-16451000D02*
X19234405Y-16441476D01*
X19234405Y-16441476D02*
X19224881Y-16422428D01*
X19224881Y-16422428D02*
X19224881Y-16365286D01*
X19224881Y-16365286D02*
X19234405Y-16346238D01*
X19234405Y-16346238D02*
X19243929Y-16336714D01*
X19243929Y-16336714D02*
X19262977Y-16327190D01*
X19262977Y-16327190D02*
X19291548Y-16327190D01*
X19291548Y-16327190D02*
X19310596Y-16336714D01*
X19310596Y-16336714D02*
X19320119Y-16346238D01*
X19320119Y-16346238D02*
X19329643Y-16365286D01*
X19329643Y-16365286D02*
X19329643Y-16422428D01*
X19329643Y-16422428D02*
X19320119Y-16441476D01*
X19320119Y-16441476D02*
X19310596Y-16451000D01*
X19310596Y-16451000D02*
X19291548Y-16460524D01*
X19291548Y-16460524D02*
X19262977Y-16460524D01*
X19443929Y-16460524D02*
X19424881Y-16451000D01*
X19424881Y-16451000D02*
X19415358Y-16431952D01*
X19415358Y-16431952D02*
X19415358Y-16260524D01*
X19596310Y-16451000D02*
X19577262Y-16460524D01*
X19577262Y-16460524D02*
X19539167Y-16460524D01*
X19539167Y-16460524D02*
X19520119Y-16451000D01*
X19520119Y-16451000D02*
X19510596Y-16431952D01*
X19510596Y-16431952D02*
X19510596Y-16355762D01*
X19510596Y-16355762D02*
X19520119Y-16336714D01*
X19520119Y-16336714D02*
X19539167Y-16327190D01*
X19539167Y-16327190D02*
X19577262Y-16327190D01*
X19577262Y-16327190D02*
X19596310Y-16336714D01*
X19596310Y-16336714D02*
X19605834Y-16355762D01*
X19605834Y-16355762D02*
X19605834Y-16374809D01*
X19605834Y-16374809D02*
X19510596Y-16393857D01*
X19682024Y-16451000D02*
X19701072Y-16460524D01*
X19701072Y-16460524D02*
X19739167Y-16460524D01*
X19739167Y-16460524D02*
X19758215Y-16451000D01*
X19758215Y-16451000D02*
X19767739Y-16431952D01*
X19767739Y-16431952D02*
X19767739Y-16422428D01*
X19767739Y-16422428D02*
X19758215Y-16403381D01*
X19758215Y-16403381D02*
X19739167Y-16393857D01*
X19739167Y-16393857D02*
X19710596Y-16393857D01*
X19710596Y-16393857D02*
X19691548Y-16384333D01*
X19691548Y-16384333D02*
X19682024Y-16365286D01*
X19682024Y-16365286D02*
X19682024Y-16355762D01*
X19682024Y-16355762D02*
X19691548Y-16336714D01*
X19691548Y-16336714D02*
X19710596Y-16327190D01*
X19710596Y-16327190D02*
X19739167Y-16327190D01*
X19739167Y-16327190D02*
X19758215Y-16336714D01*
X19834405Y-16536714D02*
X19843929Y-16527190D01*
X19843929Y-16527190D02*
X19862977Y-16498619D01*
X19862977Y-16498619D02*
X19872500Y-16479571D01*
X19872500Y-16479571D02*
X19882024Y-16451000D01*
X19882024Y-16451000D02*
X19891548Y-16403381D01*
X19891548Y-16403381D02*
X19891548Y-16365286D01*
X19891548Y-16365286D02*
X19882024Y-16317667D01*
X19882024Y-16317667D02*
X19872500Y-16289095D01*
X19872500Y-16289095D02*
X19862977Y-16270048D01*
X19862977Y-16270048D02*
X19843929Y-16241476D01*
X19843929Y-16241476D02*
X19834405Y-16231952D01*
D17*
X14962500Y-16577000D02*
X15072500Y-16687000D01*
X15072500Y-16577000D02*
X14962500Y-16687000D01*
X15017500Y-16577000D02*
X15017500Y-16687000D01*
X14962500Y-16632000D02*
X15072500Y-16632000D01*
D10*
X15424881Y-16724524D02*
X15310595Y-16724524D01*
X15367738Y-16724524D02*
X15367738Y-16524524D01*
X15367738Y-16524524D02*
X15348690Y-16553095D01*
X15348690Y-16553095D02*
X15329643Y-16572143D01*
X15329643Y-16572143D02*
X15310595Y-16581667D01*
X15510595Y-16705476D02*
X15520119Y-16715000D01*
X15520119Y-16715000D02*
X15510595Y-16724524D01*
X15510595Y-16724524D02*
X15501071Y-16715000D01*
X15501071Y-16715000D02*
X15510595Y-16705476D01*
X15510595Y-16705476D02*
X15510595Y-16724524D01*
X15710595Y-16724524D02*
X15596309Y-16724524D01*
X15653452Y-16724524D02*
X15653452Y-16524524D01*
X15653452Y-16524524D02*
X15634405Y-16553095D01*
X15634405Y-16553095D02*
X15615357Y-16572143D01*
X15615357Y-16572143D02*
X15596309Y-16581667D01*
X15834405Y-16524524D02*
X15853452Y-16524524D01*
X15853452Y-16524524D02*
X15872500Y-16534048D01*
X15872500Y-16534048D02*
X15882024Y-16543571D01*
X15882024Y-16543571D02*
X15891548Y-16562619D01*
X15891548Y-16562619D02*
X15901071Y-16600714D01*
X15901071Y-16600714D02*
X15901071Y-16648333D01*
X15901071Y-16648333D02*
X15891548Y-16686428D01*
X15891548Y-16686428D02*
X15882024Y-16705476D01*
X15882024Y-16705476D02*
X15872500Y-16715000D01*
X15872500Y-16715000D02*
X15853452Y-16724524D01*
X15853452Y-16724524D02*
X15834405Y-16724524D01*
X15834405Y-16724524D02*
X15815357Y-16715000D01*
X15815357Y-16715000D02*
X15805833Y-16705476D01*
X15805833Y-16705476D02*
X15796309Y-16686428D01*
X15796309Y-16686428D02*
X15786786Y-16648333D01*
X15786786Y-16648333D02*
X15786786Y-16600714D01*
X15786786Y-16600714D02*
X15796309Y-16562619D01*
X15796309Y-16562619D02*
X15805833Y-16543571D01*
X15805833Y-16543571D02*
X15815357Y-16534048D01*
X15815357Y-16534048D02*
X15834405Y-16524524D01*
X16024881Y-16524524D02*
X16043929Y-16524524D01*
X16043929Y-16524524D02*
X16062976Y-16534048D01*
X16062976Y-16534048D02*
X16072500Y-16543571D01*
X16072500Y-16543571D02*
X16082024Y-16562619D01*
X16082024Y-16562619D02*
X16091548Y-16600714D01*
X16091548Y-16600714D02*
X16091548Y-16648333D01*
X16091548Y-16648333D02*
X16082024Y-16686428D01*
X16082024Y-16686428D02*
X16072500Y-16705476D01*
X16072500Y-16705476D02*
X16062976Y-16715000D01*
X16062976Y-16715000D02*
X16043929Y-16724524D01*
X16043929Y-16724524D02*
X16024881Y-16724524D01*
X16024881Y-16724524D02*
X16005833Y-16715000D01*
X16005833Y-16715000D02*
X15996309Y-16705476D01*
X15996309Y-16705476D02*
X15986786Y-16686428D01*
X15986786Y-16686428D02*
X15977262Y-16648333D01*
X15977262Y-16648333D02*
X15977262Y-16600714D01*
X15977262Y-16600714D02*
X15986786Y-16562619D01*
X15986786Y-16562619D02*
X15996309Y-16543571D01*
X15996309Y-16543571D02*
X16005833Y-16534048D01*
X16005833Y-16534048D02*
X16024881Y-16524524D01*
X16177262Y-16724524D02*
X16177262Y-16591190D01*
X16177262Y-16610238D02*
X16186786Y-16600714D01*
X16186786Y-16600714D02*
X16205833Y-16591190D01*
X16205833Y-16591190D02*
X16234405Y-16591190D01*
X16234405Y-16591190D02*
X16253452Y-16600714D01*
X16253452Y-16600714D02*
X16262976Y-16619762D01*
X16262976Y-16619762D02*
X16262976Y-16724524D01*
X16262976Y-16619762D02*
X16272500Y-16600714D01*
X16272500Y-16600714D02*
X16291548Y-16591190D01*
X16291548Y-16591190D02*
X16320119Y-16591190D01*
X16320119Y-16591190D02*
X16339167Y-16600714D01*
X16339167Y-16600714D02*
X16348690Y-16619762D01*
X16348690Y-16619762D02*
X16348690Y-16724524D01*
X16443929Y-16724524D02*
X16443929Y-16591190D01*
X16443929Y-16610238D02*
X16453452Y-16600714D01*
X16453452Y-16600714D02*
X16472500Y-16591190D01*
X16472500Y-16591190D02*
X16501071Y-16591190D01*
X16501071Y-16591190D02*
X16520119Y-16600714D01*
X16520119Y-16600714D02*
X16529643Y-16619762D01*
X16529643Y-16619762D02*
X16529643Y-16724524D01*
X16529643Y-16619762D02*
X16539167Y-16600714D01*
X16539167Y-16600714D02*
X16558214Y-16591190D01*
X16558214Y-16591190D02*
X16586786Y-16591190D01*
X16586786Y-16591190D02*
X16605833Y-16600714D01*
X16605833Y-16600714D02*
X16615357Y-16619762D01*
X16615357Y-16619762D02*
X16615357Y-16724524D01*
X17005833Y-16515000D02*
X16834405Y-16772143D01*
X17262976Y-16524524D02*
X17282024Y-16524524D01*
X17282024Y-16524524D02*
X17301072Y-16534048D01*
X17301072Y-16534048D02*
X17310595Y-16543571D01*
X17310595Y-16543571D02*
X17320119Y-16562619D01*
X17320119Y-16562619D02*
X17329643Y-16600714D01*
X17329643Y-16600714D02*
X17329643Y-16648333D01*
X17329643Y-16648333D02*
X17320119Y-16686428D01*
X17320119Y-16686428D02*
X17310595Y-16705476D01*
X17310595Y-16705476D02*
X17301072Y-16715000D01*
X17301072Y-16715000D02*
X17282024Y-16724524D01*
X17282024Y-16724524D02*
X17262976Y-16724524D01*
X17262976Y-16724524D02*
X17243929Y-16715000D01*
X17243929Y-16715000D02*
X17234405Y-16705476D01*
X17234405Y-16705476D02*
X17224881Y-16686428D01*
X17224881Y-16686428D02*
X17215357Y-16648333D01*
X17215357Y-16648333D02*
X17215357Y-16600714D01*
X17215357Y-16600714D02*
X17224881Y-16562619D01*
X17224881Y-16562619D02*
X17234405Y-16543571D01*
X17234405Y-16543571D02*
X17243929Y-16534048D01*
X17243929Y-16534048D02*
X17262976Y-16524524D01*
X17415357Y-16705476D02*
X17424881Y-16715000D01*
X17424881Y-16715000D02*
X17415357Y-16724524D01*
X17415357Y-16724524D02*
X17405834Y-16715000D01*
X17405834Y-16715000D02*
X17415357Y-16705476D01*
X17415357Y-16705476D02*
X17415357Y-16724524D01*
X17548691Y-16524524D02*
X17567738Y-16524524D01*
X17567738Y-16524524D02*
X17586786Y-16534048D01*
X17586786Y-16534048D02*
X17596310Y-16543571D01*
X17596310Y-16543571D02*
X17605834Y-16562619D01*
X17605834Y-16562619D02*
X17615357Y-16600714D01*
X17615357Y-16600714D02*
X17615357Y-16648333D01*
X17615357Y-16648333D02*
X17605834Y-16686428D01*
X17605834Y-16686428D02*
X17596310Y-16705476D01*
X17596310Y-16705476D02*
X17586786Y-16715000D01*
X17586786Y-16715000D02*
X17567738Y-16724524D01*
X17567738Y-16724524D02*
X17548691Y-16724524D01*
X17548691Y-16724524D02*
X17529643Y-16715000D01*
X17529643Y-16715000D02*
X17520119Y-16705476D01*
X17520119Y-16705476D02*
X17510595Y-16686428D01*
X17510595Y-16686428D02*
X17501072Y-16648333D01*
X17501072Y-16648333D02*
X17501072Y-16600714D01*
X17501072Y-16600714D02*
X17510595Y-16562619D01*
X17510595Y-16562619D02*
X17520119Y-16543571D01*
X17520119Y-16543571D02*
X17529643Y-16534048D01*
X17529643Y-16534048D02*
X17548691Y-16524524D01*
X17786786Y-16591190D02*
X17786786Y-16724524D01*
X17739167Y-16515000D02*
X17691548Y-16657857D01*
X17691548Y-16657857D02*
X17815357Y-16657857D01*
X17872500Y-16524524D02*
X17996310Y-16524524D01*
X17996310Y-16524524D02*
X17929643Y-16600714D01*
X17929643Y-16600714D02*
X17958215Y-16600714D01*
X17958215Y-16600714D02*
X17977262Y-16610238D01*
X17977262Y-16610238D02*
X17986786Y-16619762D01*
X17986786Y-16619762D02*
X17996310Y-16638809D01*
X17996310Y-16638809D02*
X17996310Y-16686428D01*
X17996310Y-16686428D02*
X17986786Y-16705476D01*
X17986786Y-16705476D02*
X17977262Y-16715000D01*
X17977262Y-16715000D02*
X17958215Y-16724524D01*
X17958215Y-16724524D02*
X17901072Y-16724524D01*
X17901072Y-16724524D02*
X17882024Y-16715000D01*
X17882024Y-16715000D02*
X17872500Y-16705476D01*
X18062976Y-16524524D02*
X18186786Y-16524524D01*
X18186786Y-16524524D02*
X18120119Y-16600714D01*
X18120119Y-16600714D02*
X18148691Y-16600714D01*
X18148691Y-16600714D02*
X18167738Y-16610238D01*
X18167738Y-16610238D02*
X18177262Y-16619762D01*
X18177262Y-16619762D02*
X18186786Y-16638809D01*
X18186786Y-16638809D02*
X18186786Y-16686428D01*
X18186786Y-16686428D02*
X18177262Y-16705476D01*
X18177262Y-16705476D02*
X18167738Y-16715000D01*
X18167738Y-16715000D02*
X18148691Y-16724524D01*
X18148691Y-16724524D02*
X18091548Y-16724524D01*
X18091548Y-16724524D02*
X18072500Y-16715000D01*
X18072500Y-16715000D02*
X18062976Y-16705476D01*
X18262976Y-16524524D02*
X18262976Y-16562619D01*
X18339167Y-16524524D02*
X18339167Y-16562619D01*
X18634405Y-16800714D02*
X18624881Y-16791190D01*
X18624881Y-16791190D02*
X18605834Y-16762619D01*
X18605834Y-16762619D02*
X18596310Y-16743571D01*
X18596310Y-16743571D02*
X18586786Y-16715000D01*
X18586786Y-16715000D02*
X18577262Y-16667381D01*
X18577262Y-16667381D02*
X18577262Y-16629286D01*
X18577262Y-16629286D02*
X18586786Y-16581667D01*
X18586786Y-16581667D02*
X18596310Y-16553095D01*
X18596310Y-16553095D02*
X18605834Y-16534048D01*
X18605834Y-16534048D02*
X18624881Y-16505476D01*
X18624881Y-16505476D02*
X18634405Y-16495952D01*
X18691548Y-16524524D02*
X18815357Y-16524524D01*
X18815357Y-16524524D02*
X18748691Y-16600714D01*
X18748691Y-16600714D02*
X18777262Y-16600714D01*
X18777262Y-16600714D02*
X18796310Y-16610238D01*
X18796310Y-16610238D02*
X18805834Y-16619762D01*
X18805834Y-16619762D02*
X18815357Y-16638809D01*
X18815357Y-16638809D02*
X18815357Y-16686428D01*
X18815357Y-16686428D02*
X18805834Y-16705476D01*
X18805834Y-16705476D02*
X18796310Y-16715000D01*
X18796310Y-16715000D02*
X18777262Y-16724524D01*
X18777262Y-16724524D02*
X18720119Y-16724524D01*
X18720119Y-16724524D02*
X18701072Y-16715000D01*
X18701072Y-16715000D02*
X18691548Y-16705476D01*
X19053453Y-16724524D02*
X19053453Y-16524524D01*
X19139167Y-16724524D02*
X19139167Y-16619762D01*
X19139167Y-16619762D02*
X19129643Y-16600714D01*
X19129643Y-16600714D02*
X19110596Y-16591190D01*
X19110596Y-16591190D02*
X19082024Y-16591190D01*
X19082024Y-16591190D02*
X19062977Y-16600714D01*
X19062977Y-16600714D02*
X19053453Y-16610238D01*
X19262977Y-16724524D02*
X19243929Y-16715000D01*
X19243929Y-16715000D02*
X19234405Y-16705476D01*
X19234405Y-16705476D02*
X19224881Y-16686428D01*
X19224881Y-16686428D02*
X19224881Y-16629286D01*
X19224881Y-16629286D02*
X19234405Y-16610238D01*
X19234405Y-16610238D02*
X19243929Y-16600714D01*
X19243929Y-16600714D02*
X19262977Y-16591190D01*
X19262977Y-16591190D02*
X19291548Y-16591190D01*
X19291548Y-16591190D02*
X19310596Y-16600714D01*
X19310596Y-16600714D02*
X19320119Y-16610238D01*
X19320119Y-16610238D02*
X19329643Y-16629286D01*
X19329643Y-16629286D02*
X19329643Y-16686428D01*
X19329643Y-16686428D02*
X19320119Y-16705476D01*
X19320119Y-16705476D02*
X19310596Y-16715000D01*
X19310596Y-16715000D02*
X19291548Y-16724524D01*
X19291548Y-16724524D02*
X19262977Y-16724524D01*
X19443929Y-16724524D02*
X19424881Y-16715000D01*
X19424881Y-16715000D02*
X19415358Y-16695952D01*
X19415358Y-16695952D02*
X19415358Y-16524524D01*
X19596310Y-16715000D02*
X19577262Y-16724524D01*
X19577262Y-16724524D02*
X19539167Y-16724524D01*
X19539167Y-16724524D02*
X19520119Y-16715000D01*
X19520119Y-16715000D02*
X19510596Y-16695952D01*
X19510596Y-16695952D02*
X19510596Y-16619762D01*
X19510596Y-16619762D02*
X19520119Y-16600714D01*
X19520119Y-16600714D02*
X19539167Y-16591190D01*
X19539167Y-16591190D02*
X19577262Y-16591190D01*
X19577262Y-16591190D02*
X19596310Y-16600714D01*
X19596310Y-16600714D02*
X19605834Y-16619762D01*
X19605834Y-16619762D02*
X19605834Y-16638809D01*
X19605834Y-16638809D02*
X19510596Y-16657857D01*
X19682024Y-16715000D02*
X19701072Y-16724524D01*
X19701072Y-16724524D02*
X19739167Y-16724524D01*
X19739167Y-16724524D02*
X19758215Y-16715000D01*
X19758215Y-16715000D02*
X19767739Y-16695952D01*
X19767739Y-16695952D02*
X19767739Y-16686428D01*
X19767739Y-16686428D02*
X19758215Y-16667381D01*
X19758215Y-16667381D02*
X19739167Y-16657857D01*
X19739167Y-16657857D02*
X19710596Y-16657857D01*
X19710596Y-16657857D02*
X19691548Y-16648333D01*
X19691548Y-16648333D02*
X19682024Y-16629286D01*
X19682024Y-16629286D02*
X19682024Y-16619762D01*
X19682024Y-16619762D02*
X19691548Y-16600714D01*
X19691548Y-16600714D02*
X19710596Y-16591190D01*
X19710596Y-16591190D02*
X19739167Y-16591190D01*
X19739167Y-16591190D02*
X19758215Y-16600714D01*
X19834405Y-16800714D02*
X19843929Y-16791190D01*
X19843929Y-16791190D02*
X19862977Y-16762619D01*
X19862977Y-16762619D02*
X19872500Y-16743571D01*
X19872500Y-16743571D02*
X19882024Y-16715000D01*
X19882024Y-16715000D02*
X19891548Y-16667381D01*
X19891548Y-16667381D02*
X19891548Y-16629286D01*
X19891548Y-16629286D02*
X19882024Y-16581667D01*
X19882024Y-16581667D02*
X19872500Y-16553095D01*
X19872500Y-16553095D02*
X19862977Y-16534048D01*
X19862977Y-16534048D02*
X19843929Y-16505476D01*
X19843929Y-16505476D02*
X19834405Y-16495952D01*
D18*
X14942500Y-16831000D02*
X15072500Y-16961000D01*
X15072500Y-16831000D02*
X14942500Y-16961000D01*
X15053462Y-16941962D02*
X15053462Y-16850038D01*
X14961538Y-16850038D01*
X14961538Y-16941962D01*
X15053462Y-16941962D01*
D10*
X15424881Y-16988524D02*
X15310595Y-16988524D01*
X15367738Y-16988524D02*
X15367738Y-16788524D01*
X15367738Y-16788524D02*
X15348690Y-16817095D01*
X15348690Y-16817095D02*
X15329643Y-16836143D01*
X15329643Y-16836143D02*
X15310595Y-16845667D01*
X15510595Y-16969476D02*
X15520119Y-16979000D01*
X15520119Y-16979000D02*
X15510595Y-16988524D01*
X15510595Y-16988524D02*
X15501071Y-16979000D01*
X15501071Y-16979000D02*
X15510595Y-16969476D01*
X15510595Y-16969476D02*
X15510595Y-16988524D01*
X15586786Y-16788524D02*
X15710595Y-16788524D01*
X15710595Y-16788524D02*
X15643928Y-16864714D01*
X15643928Y-16864714D02*
X15672500Y-16864714D01*
X15672500Y-16864714D02*
X15691548Y-16874238D01*
X15691548Y-16874238D02*
X15701071Y-16883762D01*
X15701071Y-16883762D02*
X15710595Y-16902810D01*
X15710595Y-16902810D02*
X15710595Y-16950429D01*
X15710595Y-16950429D02*
X15701071Y-16969476D01*
X15701071Y-16969476D02*
X15691548Y-16979000D01*
X15691548Y-16979000D02*
X15672500Y-16988524D01*
X15672500Y-16988524D02*
X15615357Y-16988524D01*
X15615357Y-16988524D02*
X15596309Y-16979000D01*
X15596309Y-16979000D02*
X15586786Y-16969476D01*
X15834405Y-16788524D02*
X15853452Y-16788524D01*
X15853452Y-16788524D02*
X15872500Y-16798048D01*
X15872500Y-16798048D02*
X15882024Y-16807571D01*
X15882024Y-16807571D02*
X15891548Y-16826619D01*
X15891548Y-16826619D02*
X15901071Y-16864714D01*
X15901071Y-16864714D02*
X15901071Y-16912333D01*
X15901071Y-16912333D02*
X15891548Y-16950429D01*
X15891548Y-16950429D02*
X15882024Y-16969476D01*
X15882024Y-16969476D02*
X15872500Y-16979000D01*
X15872500Y-16979000D02*
X15853452Y-16988524D01*
X15853452Y-16988524D02*
X15834405Y-16988524D01*
X15834405Y-16988524D02*
X15815357Y-16979000D01*
X15815357Y-16979000D02*
X15805833Y-16969476D01*
X15805833Y-16969476D02*
X15796309Y-16950429D01*
X15796309Y-16950429D02*
X15786786Y-16912333D01*
X15786786Y-16912333D02*
X15786786Y-16864714D01*
X15786786Y-16864714D02*
X15796309Y-16826619D01*
X15796309Y-16826619D02*
X15805833Y-16807571D01*
X15805833Y-16807571D02*
X15815357Y-16798048D01*
X15815357Y-16798048D02*
X15834405Y-16788524D01*
X16024881Y-16788524D02*
X16043929Y-16788524D01*
X16043929Y-16788524D02*
X16062976Y-16798048D01*
X16062976Y-16798048D02*
X16072500Y-16807571D01*
X16072500Y-16807571D02*
X16082024Y-16826619D01*
X16082024Y-16826619D02*
X16091548Y-16864714D01*
X16091548Y-16864714D02*
X16091548Y-16912333D01*
X16091548Y-16912333D02*
X16082024Y-16950429D01*
X16082024Y-16950429D02*
X16072500Y-16969476D01*
X16072500Y-16969476D02*
X16062976Y-16979000D01*
X16062976Y-16979000D02*
X16043929Y-16988524D01*
X16043929Y-16988524D02*
X16024881Y-16988524D01*
X16024881Y-16988524D02*
X16005833Y-16979000D01*
X16005833Y-16979000D02*
X15996309Y-16969476D01*
X15996309Y-16969476D02*
X15986786Y-16950429D01*
X15986786Y-16950429D02*
X15977262Y-16912333D01*
X15977262Y-16912333D02*
X15977262Y-16864714D01*
X15977262Y-16864714D02*
X15986786Y-16826619D01*
X15986786Y-16826619D02*
X15996309Y-16807571D01*
X15996309Y-16807571D02*
X16005833Y-16798048D01*
X16005833Y-16798048D02*
X16024881Y-16788524D01*
X16177262Y-16988524D02*
X16177262Y-16855190D01*
X16177262Y-16874238D02*
X16186786Y-16864714D01*
X16186786Y-16864714D02*
X16205833Y-16855190D01*
X16205833Y-16855190D02*
X16234405Y-16855190D01*
X16234405Y-16855190D02*
X16253452Y-16864714D01*
X16253452Y-16864714D02*
X16262976Y-16883762D01*
X16262976Y-16883762D02*
X16262976Y-16988524D01*
X16262976Y-16883762D02*
X16272500Y-16864714D01*
X16272500Y-16864714D02*
X16291548Y-16855190D01*
X16291548Y-16855190D02*
X16320119Y-16855190D01*
X16320119Y-16855190D02*
X16339167Y-16864714D01*
X16339167Y-16864714D02*
X16348690Y-16883762D01*
X16348690Y-16883762D02*
X16348690Y-16988524D01*
X16443929Y-16988524D02*
X16443929Y-16855190D01*
X16443929Y-16874238D02*
X16453452Y-16864714D01*
X16453452Y-16864714D02*
X16472500Y-16855190D01*
X16472500Y-16855190D02*
X16501071Y-16855190D01*
X16501071Y-16855190D02*
X16520119Y-16864714D01*
X16520119Y-16864714D02*
X16529643Y-16883762D01*
X16529643Y-16883762D02*
X16529643Y-16988524D01*
X16529643Y-16883762D02*
X16539167Y-16864714D01*
X16539167Y-16864714D02*
X16558214Y-16855190D01*
X16558214Y-16855190D02*
X16586786Y-16855190D01*
X16586786Y-16855190D02*
X16605833Y-16864714D01*
X16605833Y-16864714D02*
X16615357Y-16883762D01*
X16615357Y-16883762D02*
X16615357Y-16988524D01*
X17005833Y-16779000D02*
X16834405Y-17036143D01*
X17262976Y-16788524D02*
X17282024Y-16788524D01*
X17282024Y-16788524D02*
X17301072Y-16798048D01*
X17301072Y-16798048D02*
X17310595Y-16807571D01*
X17310595Y-16807571D02*
X17320119Y-16826619D01*
X17320119Y-16826619D02*
X17329643Y-16864714D01*
X17329643Y-16864714D02*
X17329643Y-16912333D01*
X17329643Y-16912333D02*
X17320119Y-16950429D01*
X17320119Y-16950429D02*
X17310595Y-16969476D01*
X17310595Y-16969476D02*
X17301072Y-16979000D01*
X17301072Y-16979000D02*
X17282024Y-16988524D01*
X17282024Y-16988524D02*
X17262976Y-16988524D01*
X17262976Y-16988524D02*
X17243929Y-16979000D01*
X17243929Y-16979000D02*
X17234405Y-16969476D01*
X17234405Y-16969476D02*
X17224881Y-16950429D01*
X17224881Y-16950429D02*
X17215357Y-16912333D01*
X17215357Y-16912333D02*
X17215357Y-16864714D01*
X17215357Y-16864714D02*
X17224881Y-16826619D01*
X17224881Y-16826619D02*
X17234405Y-16807571D01*
X17234405Y-16807571D02*
X17243929Y-16798048D01*
X17243929Y-16798048D02*
X17262976Y-16788524D01*
X17415357Y-16969476D02*
X17424881Y-16979000D01*
X17424881Y-16979000D02*
X17415357Y-16988524D01*
X17415357Y-16988524D02*
X17405834Y-16979000D01*
X17405834Y-16979000D02*
X17415357Y-16969476D01*
X17415357Y-16969476D02*
X17415357Y-16988524D01*
X17548691Y-16788524D02*
X17567738Y-16788524D01*
X17567738Y-16788524D02*
X17586786Y-16798048D01*
X17586786Y-16798048D02*
X17596310Y-16807571D01*
X17596310Y-16807571D02*
X17605834Y-16826619D01*
X17605834Y-16826619D02*
X17615357Y-16864714D01*
X17615357Y-16864714D02*
X17615357Y-16912333D01*
X17615357Y-16912333D02*
X17605834Y-16950429D01*
X17605834Y-16950429D02*
X17596310Y-16969476D01*
X17596310Y-16969476D02*
X17586786Y-16979000D01*
X17586786Y-16979000D02*
X17567738Y-16988524D01*
X17567738Y-16988524D02*
X17548691Y-16988524D01*
X17548691Y-16988524D02*
X17529643Y-16979000D01*
X17529643Y-16979000D02*
X17520119Y-16969476D01*
X17520119Y-16969476D02*
X17510595Y-16950429D01*
X17510595Y-16950429D02*
X17501072Y-16912333D01*
X17501072Y-16912333D02*
X17501072Y-16864714D01*
X17501072Y-16864714D02*
X17510595Y-16826619D01*
X17510595Y-16826619D02*
X17520119Y-16807571D01*
X17520119Y-16807571D02*
X17529643Y-16798048D01*
X17529643Y-16798048D02*
X17548691Y-16788524D01*
X17796310Y-16788524D02*
X17701072Y-16788524D01*
X17701072Y-16788524D02*
X17691548Y-16883762D01*
X17691548Y-16883762D02*
X17701072Y-16874238D01*
X17701072Y-16874238D02*
X17720119Y-16864714D01*
X17720119Y-16864714D02*
X17767738Y-16864714D01*
X17767738Y-16864714D02*
X17786786Y-16874238D01*
X17786786Y-16874238D02*
X17796310Y-16883762D01*
X17796310Y-16883762D02*
X17805834Y-16902810D01*
X17805834Y-16902810D02*
X17805834Y-16950429D01*
X17805834Y-16950429D02*
X17796310Y-16969476D01*
X17796310Y-16969476D02*
X17786786Y-16979000D01*
X17786786Y-16979000D02*
X17767738Y-16988524D01*
X17767738Y-16988524D02*
X17720119Y-16988524D01*
X17720119Y-16988524D02*
X17701072Y-16979000D01*
X17701072Y-16979000D02*
X17691548Y-16969476D01*
X17996310Y-16988524D02*
X17882024Y-16988524D01*
X17939167Y-16988524D02*
X17939167Y-16788524D01*
X17939167Y-16788524D02*
X17920119Y-16817095D01*
X17920119Y-16817095D02*
X17901072Y-16836143D01*
X17901072Y-16836143D02*
X17882024Y-16845667D01*
X18072500Y-16807571D02*
X18082024Y-16798048D01*
X18082024Y-16798048D02*
X18101072Y-16788524D01*
X18101072Y-16788524D02*
X18148691Y-16788524D01*
X18148691Y-16788524D02*
X18167738Y-16798048D01*
X18167738Y-16798048D02*
X18177262Y-16807571D01*
X18177262Y-16807571D02*
X18186786Y-16826619D01*
X18186786Y-16826619D02*
X18186786Y-16845667D01*
X18186786Y-16845667D02*
X18177262Y-16874238D01*
X18177262Y-16874238D02*
X18062976Y-16988524D01*
X18062976Y-16988524D02*
X18186786Y-16988524D01*
X18262976Y-16788524D02*
X18262976Y-16826619D01*
X18339167Y-16788524D02*
X18339167Y-16826619D01*
X18634405Y-17064714D02*
X18624881Y-17055190D01*
X18624881Y-17055190D02*
X18605834Y-17026619D01*
X18605834Y-17026619D02*
X18596310Y-17007571D01*
X18596310Y-17007571D02*
X18586786Y-16979000D01*
X18586786Y-16979000D02*
X18577262Y-16931381D01*
X18577262Y-16931381D02*
X18577262Y-16893286D01*
X18577262Y-16893286D02*
X18586786Y-16845667D01*
X18586786Y-16845667D02*
X18596310Y-16817095D01*
X18596310Y-16817095D02*
X18605834Y-16798048D01*
X18605834Y-16798048D02*
X18624881Y-16769476D01*
X18624881Y-16769476D02*
X18634405Y-16759952D01*
X18805834Y-16788524D02*
X18710596Y-16788524D01*
X18710596Y-16788524D02*
X18701072Y-16883762D01*
X18701072Y-16883762D02*
X18710596Y-16874238D01*
X18710596Y-16874238D02*
X18729643Y-16864714D01*
X18729643Y-16864714D02*
X18777262Y-16864714D01*
X18777262Y-16864714D02*
X18796310Y-16874238D01*
X18796310Y-16874238D02*
X18805834Y-16883762D01*
X18805834Y-16883762D02*
X18815357Y-16902810D01*
X18815357Y-16902810D02*
X18815357Y-16950429D01*
X18815357Y-16950429D02*
X18805834Y-16969476D01*
X18805834Y-16969476D02*
X18796310Y-16979000D01*
X18796310Y-16979000D02*
X18777262Y-16988524D01*
X18777262Y-16988524D02*
X18729643Y-16988524D01*
X18729643Y-16988524D02*
X18710596Y-16979000D01*
X18710596Y-16979000D02*
X18701072Y-16969476D01*
X19053453Y-16988524D02*
X19053453Y-16788524D01*
X19139167Y-16988524D02*
X19139167Y-16883762D01*
X19139167Y-16883762D02*
X19129643Y-16864714D01*
X19129643Y-16864714D02*
X19110596Y-16855190D01*
X19110596Y-16855190D02*
X19082024Y-16855190D01*
X19082024Y-16855190D02*
X19062977Y-16864714D01*
X19062977Y-16864714D02*
X19053453Y-16874238D01*
X19262977Y-16988524D02*
X19243929Y-16979000D01*
X19243929Y-16979000D02*
X19234405Y-16969476D01*
X19234405Y-16969476D02*
X19224881Y-16950429D01*
X19224881Y-16950429D02*
X19224881Y-16893286D01*
X19224881Y-16893286D02*
X19234405Y-16874238D01*
X19234405Y-16874238D02*
X19243929Y-16864714D01*
X19243929Y-16864714D02*
X19262977Y-16855190D01*
X19262977Y-16855190D02*
X19291548Y-16855190D01*
X19291548Y-16855190D02*
X19310596Y-16864714D01*
X19310596Y-16864714D02*
X19320119Y-16874238D01*
X19320119Y-16874238D02*
X19329643Y-16893286D01*
X19329643Y-16893286D02*
X19329643Y-16950429D01*
X19329643Y-16950429D02*
X19320119Y-16969476D01*
X19320119Y-16969476D02*
X19310596Y-16979000D01*
X19310596Y-16979000D02*
X19291548Y-16988524D01*
X19291548Y-16988524D02*
X19262977Y-16988524D01*
X19443929Y-16988524D02*
X19424881Y-16979000D01*
X19424881Y-16979000D02*
X19415358Y-16959952D01*
X19415358Y-16959952D02*
X19415358Y-16788524D01*
X19596310Y-16979000D02*
X19577262Y-16988524D01*
X19577262Y-16988524D02*
X19539167Y-16988524D01*
X19539167Y-16988524D02*
X19520119Y-16979000D01*
X19520119Y-16979000D02*
X19510596Y-16959952D01*
X19510596Y-16959952D02*
X19510596Y-16883762D01*
X19510596Y-16883762D02*
X19520119Y-16864714D01*
X19520119Y-16864714D02*
X19539167Y-16855190D01*
X19539167Y-16855190D02*
X19577262Y-16855190D01*
X19577262Y-16855190D02*
X19596310Y-16864714D01*
X19596310Y-16864714D02*
X19605834Y-16883762D01*
X19605834Y-16883762D02*
X19605834Y-16902810D01*
X19605834Y-16902810D02*
X19510596Y-16921857D01*
X19682024Y-16979000D02*
X19701072Y-16988524D01*
X19701072Y-16988524D02*
X19739167Y-16988524D01*
X19739167Y-16988524D02*
X19758215Y-16979000D01*
X19758215Y-16979000D02*
X19767739Y-16959952D01*
X19767739Y-16959952D02*
X19767739Y-16950429D01*
X19767739Y-16950429D02*
X19758215Y-16931381D01*
X19758215Y-16931381D02*
X19739167Y-16921857D01*
X19739167Y-16921857D02*
X19710596Y-16921857D01*
X19710596Y-16921857D02*
X19691548Y-16912333D01*
X19691548Y-16912333D02*
X19682024Y-16893286D01*
X19682024Y-16893286D02*
X19682024Y-16883762D01*
X19682024Y-16883762D02*
X19691548Y-16864714D01*
X19691548Y-16864714D02*
X19710596Y-16855190D01*
X19710596Y-16855190D02*
X19739167Y-16855190D01*
X19739167Y-16855190D02*
X19758215Y-16864714D01*
X19834405Y-17064714D02*
X19843929Y-17055190D01*
X19843929Y-17055190D02*
X19862977Y-17026619D01*
X19862977Y-17026619D02*
X19872500Y-17007571D01*
X19872500Y-17007571D02*
X19882024Y-16979000D01*
X19882024Y-16979000D02*
X19891548Y-16931381D01*
X19891548Y-16931381D02*
X19891548Y-16893286D01*
X19891548Y-16893286D02*
X19882024Y-16845667D01*
X19882024Y-16845667D02*
X19872500Y-16817095D01*
X19872500Y-16817095D02*
X19862977Y-16798048D01*
X19862977Y-16798048D02*
X19843929Y-16769476D01*
X19843929Y-16769476D02*
X19834405Y-16759952D01*
M02*
