%TF.GenerationSoftware,KiCad,Pcbnew,7.0.1*%
%TF.CreationDate,2023-05-29T19:52:37+03:00*%
%TF.ProjectId,First_sketch_licenta,46697273-745f-4736-9b65-7463685f6c69,rev?*%
%TF.SameCoordinates,Original*%
%TF.FileFunction,Soldermask,Bot*%
%TF.FilePolarity,Negative*%
%FSLAX46Y46*%
G04 Gerber Fmt 4.6, Leading zero omitted, Abs format (unit mm)*
G04 Created by KiCad (PCBNEW 7.0.1) date 2023-05-29 19:52:37*
%MOMM*%
%LPD*%
G01*
G04 APERTURE LIST*
%ADD10R,1.350000X1.350000*%
%ADD11O,1.350000X1.350000*%
%ADD12O,1.200000X1.900000*%
%ADD13C,1.450000*%
%ADD14R,1.600000X1.600000*%
%ADD15O,1.600000X1.600000*%
%ADD16C,3.200000*%
%ADD17R,2.000000X1.905000*%
%ADD18O,2.000000X1.905000*%
%ADD19R,1.050000X1.500000*%
%ADD20O,1.050000X1.500000*%
%ADD21C,1.000000*%
%ADD22C,3.000000*%
G04 APERTURE END LIST*
D10*
%TO.C,J3*%
X195310000Y-137160000D03*
D11*
X193310000Y-137160000D03*
%TD*%
D10*
%TO.C,J1*%
X201120000Y-47625000D03*
D11*
X199120000Y-47625000D03*
X197120000Y-47625000D03*
X195120000Y-47625000D03*
%TD*%
D12*
%TO.C,J4*%
X213898600Y-45574700D03*
D13*
X214898600Y-48274700D03*
X219898600Y-48274700D03*
D12*
X220898600Y-45574700D03*
%TD*%
D14*
%TO.C,U5*%
X168910000Y-87630000D03*
D15*
X168910000Y-90170000D03*
X168910000Y-92710000D03*
X168910000Y-95250000D03*
X168910000Y-97790000D03*
X168910000Y-100330000D03*
X168910000Y-102870000D03*
X176530000Y-102870000D03*
X176530000Y-100330000D03*
X176530000Y-97790000D03*
X176530000Y-95250000D03*
X176530000Y-92710000D03*
X176530000Y-90170000D03*
X176530000Y-87630000D03*
%TD*%
D16*
%TO.C,H1*%
X156000000Y-49000000D03*
%TD*%
%TO.C,H4*%
X246000000Y-139000000D03*
%TD*%
D10*
%TO.C,J2*%
X245237000Y-66818000D03*
D11*
X245237000Y-68818000D03*
%TD*%
D16*
%TO.C,H3*%
X156000000Y-139000000D03*
%TD*%
D17*
%TO.C,Q1*%
X157155000Y-123825000D03*
D18*
X157155000Y-121285000D03*
X157155000Y-118745000D03*
%TD*%
D19*
%TO.C,Q2*%
X201930000Y-91440000D03*
D20*
X203200000Y-91440000D03*
X204470000Y-91440000D03*
%TD*%
D21*
%TO.C,Y2*%
X191165000Y-60725000D03*
X188625000Y-60725000D03*
%TD*%
D14*
%TO.C,U3*%
X176540000Y-57155000D03*
D15*
X176540000Y-59695000D03*
X176540000Y-62235000D03*
X176540000Y-64775000D03*
X176540000Y-67315000D03*
X176540000Y-69855000D03*
X176540000Y-72395000D03*
X176540000Y-74935000D03*
X176540000Y-77475000D03*
X176540000Y-80015000D03*
X184160000Y-80015000D03*
X184160000Y-77475000D03*
X184160000Y-74935000D03*
X184160000Y-72395000D03*
X184160000Y-69855000D03*
X184160000Y-67315000D03*
X184160000Y-64775000D03*
X184160000Y-62235000D03*
X184160000Y-59695000D03*
X184160000Y-57155000D03*
%TD*%
D16*
%TO.C,H2*%
X246000000Y-49000000D03*
%TD*%
D22*
%TO.C,K2*%
X223520000Y-88470000D03*
X229520000Y-102670000D03*
X217520000Y-102670000D03*
X217520000Y-90470000D03*
X229520000Y-90470000D03*
%TD*%
M02*
